<svg xmlns="http://www.w3.org/2000/svg" width="48" height="48" viewBox="0 0 48 48"><defs><style>.a{fill:#333538;}.b{fill:none;}.c{fill:#e8f2ff;}</style></defs><rect class="a" width="48" height="48" rx="24"/><rect class="b" width="48" height="48"/><g transform="translate(11.301 14.798)"><path class="c" d="M12.7,18.252c-.019,0-2.011,0-4.219-.071-1.3-.04-2.414-.093-3.318-.16a14.357,14.357,0,0,1-2.386-.316A3.218,3.218,0,0,1,.53,15.4a13.178,13.178,0,0,1-.306-1.837c-.067-.607-.119-1.3-.158-2.061C0,10.2,0,9.136,0,9.125S0,8.051.066,6.75c.039-.765.091-1.456.158-2.061A13.218,13.218,0,0,1,.53,2.85,3.232,3.232,0,0,1,2.777.543,14.739,14.739,0,0,1,5.162.231C6.066.162,7.182.109,8.48.067,10.684,0,12.68,0,12.7,0s2.014,0,4.218.067c1.3.042,2.413.1,3.319.165a14.787,14.787,0,0,1,2.386.311A3.231,3.231,0,0,1,24.868,2.85a13.207,13.207,0,0,1,.307,1.839c.066.6.118,1.3.157,2.061.066,1.3.067,2.364.067,2.375s0,1.076-.067,2.377c-.039.765-.092,1.454-.157,2.061a13.167,13.167,0,0,1-.307,1.837,3.216,3.216,0,0,1-2.245,2.306,14.4,14.4,0,0,1-2.386.316c-.906.067-2.021.12-3.319.16C14.71,18.252,12.718,18.252,12.7,18.252ZM10.159,5.214v7.824l6.6-3.913-6.6-3.911Z"/></g></svg>