<svg xmlns="http://www.w3.org/2000/svg" width="48" height="48" viewBox="0 0 48 48"><defs><style>.a{fill:#333538;}.b{fill:none;}.c{fill:#e8f2ff;}</style></defs><g transform="translate(0.491)"><g transform="translate(-0.491)"><rect class="a" width="48" height="48" rx="24"/></g><g transform="translate(-0.491)"><rect class="b" width="48" height="48"/><g transform="translate(11.396 14.651)"><path class="c" d="M7.927,68.47A14.616,14.616,0,0,0,22.643,53.754c0-.224,0-.447-.015-.669a10.523,10.523,0,0,0,2.58-2.677,10.325,10.325,0,0,1-2.971.814,5.191,5.191,0,0,0,2.274-2.861,10.366,10.366,0,0,1-3.284,1.255,5.177,5.177,0,0,0-8.814,4.717,14.69,14.69,0,0,1-10.659-5.4,5.2,5.2,0,0,0,1.6,6.9,5.133,5.133,0,0,1-2.347-.647v.066a5.189,5.189,0,0,0,4.149,5.07,5.165,5.165,0,0,1-2.335.089A5.188,5.188,0,0,0,7.654,64a10.38,10.38,0,0,1-6.423,2.218A10.521,10.521,0,0,1,0,66.147a14.643,14.643,0,0,0,7.927,2.319" transform="translate(0 -47.987)"/></g></g></g></svg>