<svg xmlns="http://www.w3.org/2000/svg" width="48" height="48" viewBox="0 0 48 48"><defs><style>.a{fill:#333538;}.b{fill:#e8f2ff;}</style></defs><g transform="translate(-1832 -263)"><rect class="a" width="48" height="48" rx="24" transform="translate(1832 263)"/><g transform="translate(1844 275)"><path class="b" d="M-5079.984-251h-14.029a4.993,4.993,0,0,1-4.987-4.988v-14.028a4.993,4.993,0,0,1,4.987-4.987h14.029a4.993,4.993,0,0,1,4.987,4.987v14.028A4.993,4.993,0,0,1-5079.984-251Zm-7.015-19.24a7.783,7.783,0,0,0-2.542.436,6.928,6.928,0,0,0-4.259,4.259,7.337,7.337,0,0,0,.9,6.735,7.257,7.257,0,0,0,5.9,3.046,7.782,7.782,0,0,0,2.542-.436,6.928,6.928,0,0,0,4.259-4.259,7.337,7.337,0,0,0-.9-6.735A7.258,7.258,0,0,0-5087-270.236Zm7.913-2.591a1.917,1.917,0,0,0-1.915,1.914,1.916,1.916,0,0,0,1.915,1.913,1.915,1.915,0,0,0,1.913-1.913A1.916,1.916,0,0,0-5079.085-272.828Z" transform="translate(5099 275)"/><path class="b" d="M169.692,164.523a5.169,5.169,0,1,0,5.169,5.169A5.175,5.175,0,0,0,169.692,164.523Zm0,0" transform="translate(-157.691 -157.691)"/></g></g></svg>