<svg id="info_graphic" xmlns="http://www.w3.org/2000/svg" width="124" height="864" viewBox="0 0 124 864">
  <g id="info_2" data-name="info 2" transform="translate(-816 -101)">
    <g id="Base" transform="translate(816 841)" fill="none" stroke="#f9be00" stroke-width="1">
      <circle cx="62" cy="62" r="62" stroke="none"/>
      <circle cx="62" cy="62" r="61.5" fill="none"/>
    </g>
    <g id="Contant">
      <text id="_2" data-name="2" transform="translate(864 920)" fill="#f9be00" font-size="48" font-family="Roboto-Bold, Roboto" font-weight="700" letter-spacing="0.06em"><tspan x="0" y="0">2</tspan></text>
    </g>
  </g>
  <g id="Shape" transform="translate(-816 -69)">
    <path id="Base-2" data-name="Base" d="M-5580,1705v584" transform="translate(6458 -1496)" fill="none" stroke="#0fab0f" stroke-width="1" stroke-dasharray="4"/>
  </g>
  <g id="Info" transform="translate(-816 -69)">
    <g id="Base-3" data-name="Base" transform="translate(816 69)" fill="none" stroke="#0fab0f" stroke-width="1">
      <circle cx="62" cy="62" r="62" stroke="none"/>
      <circle cx="62" cy="62" r="61.5" fill="none"/>
    </g>
    <g id="Ic_Check" transform="translate(9681 870)">
      <rect id="Rectangle_10847" data-name="Rectangle 10847" width="48" height="48" transform="translate(-8827 -759)" fill="none"/>
      <path id="check" d="M17.4,35.009a2.319,2.319,0,0,1-3.28,0l-13.1-13.1a3.478,3.478,0,0,1,0-4.921l1.64-1.641a3.479,3.479,0,0,1,4.921,0l8.178,8.179,22.1-22.1a3.479,3.479,0,0,1,4.921,0l1.64,1.641a3.478,3.478,0,0,1,0,4.921Zm0,0" transform="translate(-8825.594 -753.355)" fill="#0fab0f"/>
    </g>
  </g>
</svg>
