<svg xmlns="http://www.w3.org/2000/svg" width="48" height="48" viewBox="0 0 48 48">
    <g id="Group_33528" data-name="Group 33528" transform="translate(-68 -2032)">
        <rect id="Rectangle_12111" data-name="Rectangle 12111" width="48" height="48" transform="translate(68 2032)" fill="none"/>
        <g id="noun_Bitcoin_3346111" transform="translate(74 2038)">
            <path id="Path_49108" data-name="Path 49108" d="M50.359,52.5a6.578,6.578,0,0,0-3.625-.8H44.7v6.676h2.874c2.653,0,3.979-1.017,3.979-3.139A3.015,3.015,0,0,0,50.359,52.5Z" transform="translate(-29.005 -32.91)" fill="#3f414a"/>
            <path id="Path_49109" data-name="Path 49109" d="M32.371,18.4A13.971,13.971,0,1,0,46.341,32.371,14,14,0,0,0,32.371,18.4Zm2.211,23.476v2.343H32.636V42.009H31.486v2.3H29.541v-2.3h-4.51V40.373l2.343-.531V25.032L25.032,24.5V23l5.04-.133h.088v-2.52h1.945v2.52H33.3v-2.52h1.945v2.7a5.414,5.414,0,0,1,2.3.973,4.191,4.191,0,0,1,1.636,3.537,4.265,4.265,0,0,1-3.537,4.465,5.88,5.88,0,0,1,3.183,1.636,3.982,3.982,0,0,1,1.017,2.83C39.754,39.665,38.03,41.434,34.581,41.876Z" transform="translate(-14.333 -14.333)" fill="#3f414a"/>
            <path id="Path_49110" data-name="Path 49110" d="M49.628,38.728a2.626,2.626,0,0,0,1.061-2.211,2.7,2.7,0,0,0-.884-2.211,3.485,3.485,0,0,0-2.3-.707H44.5v6.013h2.034A5.26,5.26,0,0,0,49.628,38.728Z" transform="translate(-28.894 -22.813)" fill="#3f414a"/>
            <path id="Path_49111" data-name="Path 49111" d="M27.238,9.2A18.038,18.038,0,1,0,45.276,27.238,18.057,18.057,0,0,0,27.238,9.2Zm0,33.689A15.651,15.651,0,1,1,42.889,27.238,15.68,15.68,0,0,1,27.238,42.889Z" transform="translate(-9.2 -9.2)" fill="#3f414a"/>
        </g>
    </g>
</svg>
