<svg xmlns="http://www.w3.org/2000/svg" width="20" height="20" viewBox="0 0 20 20"><defs><style>.a,.c{fill:none;}.b{fill:#cacacc;}.c{stroke:#fff;stroke-linecap:round;stroke-linejoin:round;stroke-width:0;}</style></defs><g transform="translate(10151 7805)"><rect class="a" width="20" height="20" transform="translate(-10151 -7805)"/><g transform="translate(-10151 -7832.299)"><path class="b" d="M3.9,75.219V64.712a2.413,2.413,0,0,1,.035-.337L.92,65.356a1.338,1.338,0,0,0-.855,1.683l3.248,9.993A1.338,1.338,0,0,0,5,77.889l.855-.281A2.455,2.455,0,0,1,3.9,75.219Z" transform="translate(0 -33.053)"/><path class="c" d="M122.688,28.957v.017h0" transform="translate(-114.494 0)"/><path class="b" d="M75.473,59.612l3.247-9.991a1.37,1.37,0,0,1,.117-.29H75.713a1.364,1.364,0,0,0-1.358,1.341V61.179a1.393,1.393,0,0,0,1.358,1.375h1.066A2.431,2.431,0,0,1,75.473,59.612Z" transform="translate(-69.389 -19.013)"/><path class="b" d="M117.195,47l-6.86-2.229a1.322,1.322,0,0,0-.41-.065,1.341,1.341,0,0,0-1.273.923l-3.247,9.993a1.34,1.34,0,0,0,.858,1.683l6.86,2.229a1.327,1.327,0,0,0,.41.065,1.341,1.341,0,0,0,1.273-.923l3.247-9.993A1.34,1.34,0,0,0,117.195,47Zm-6.412,7.813c-3.235-3.928-1.35-5.88-.158-5.875a1.617,1.617,0,0,1,1.589,1.467,1.52,1.52,0,0,1,2.147-.254C115.33,50.851,115.708,53.537,110.783,54.816Z" transform="translate(-98.305 -14.7)"/></g></g></svg>