<svg xmlns="http://www.w3.org/2000/svg" width="20" height="20" viewBox="0 0 20 20"><defs><style>.a{fill:none;}.b{fill:#f9be00;}</style></defs><g transform="translate(10124 7624)"><rect class="a" width="20" height="20" transform="translate(-10124 -7624)"/><g transform="translate(-10198.066 -7623.879)"><path class="b" d="M133.751,5.818V4.274a3.023,3.023,0,0,1,6.046,0V5.818l.021.008a7.794,7.794,0,0,1,1.23.656V4.274a4.274,4.274,0,1,0-8.547,0V6.482a7.8,7.8,0,0,1,1.23-.656Z" transform="translate(-52.707)"/><path class="b" d="M84.067,155a6.567,6.567,0,1,0,6.567,6.567A6.567,6.567,0,0,0,84.067,155Zm-.519,8.841L81.1,161.389l.884-.884,1.568,1.567,2.336-2.336.884.884Z" transform="translate(0 -148.537)"/></g></g></svg>