<svg xmlns="http://www.w3.org/2000/svg" width="20" height="20" viewBox="0 0 20 20"><defs><style>.a{fill:none;}.b{fill:#cacacc;}</style></defs><g transform="translate(10171 7640)"><rect class="a" width="20" height="20" transform="translate(-10171 -7640)"/><g transform="translate(-10170.032 -7721.369)"><path class="b" d="M0,213.091v4.675A2.438,2.438,0,0,0,2.438,220.2H15.627a2.438,2.438,0,0,0,2.438-2.438v-4.675a.424.424,0,0,0-.424-.424H.424A.424.424,0,0,0,0,213.091Zm4.51,2.968H3.38a.742.742,0,0,1,0-1.484H4.51a.742.742,0,0,1,0,1.484Z" transform="translate(0 -122.835)"/><path class="b" d="M18.064,87.925v-.153a2.438,2.438,0,0,0-2.438-2.438H2.438A2.438,2.438,0,0,0,0,87.772v.153a.424.424,0,0,0,.424.424H17.641A.424.424,0,0,0,18.064,87.925Z"/></g></g></svg>