<svg id="Group_38569" data-name="Group 38569" xmlns="http://www.w3.org/2000/svg" width="56.862" height="27.587" viewBox="0 0 56.862 27.587">
  <path id="Path_54370" data-name="Path 54370" d="M20.3,178.2v18.092h5.364v-5.667h5.847v-5.1H25.73v-2.417h6.757l-.076-4.909H20.3" transform="translate(-20.281 -178.048)" fill="#fff"/>
  <path id="Path_54371" data-name="Path 54371" d="M326.289,177.2l5.525,8.634-5.914,9.553h6.406l2.644-4.009,2.673,4.009h6.539l-6.075-9.486,5.62-8.7h-6.549l-2.066,3.857-2.36-3.857h-6.444" transform="translate(-296.919 -177.143)" fill="#fff"/>
  <path id="Path_54372" data-name="Path 54372" d="M157.217,176.6c-5.535,0-10.017,4.1-10.017,9.174s4.483,9.174,10.017,9.174,10.027-4.1,10.027-9.174-4.492-9.174-10.027-9.174m1.734,5.07v7.7c0,.881-.1,1.592-1.744,1.592s-1.63-.91-1.63-.91V181.67s-.076-1.3,1.706-1.3S158.951,181.67,158.951,181.67Z" transform="translate(-135.155 -176.6)" fill="#fff"/>
  <path id="Path_54373" data-name="Path 54373" d="M533.918,197.651,527.9,177.2h5.762l2.71,20.451h-2.454" transform="translate(-479.776 -177.143)" fill="#fff"/>
  <path id="Path_54374" data-name="Path 54374" d="M471.1,209.675l7.42,11.875h3.108L475.118,203.6l-4.018,6.075" transform="translate(-428.359 -201.041)" fill="#fff"/>
  <path id="Path_54375" data-name="Path 54375" d="M68.688,382.056H20.1V380.9H67.959l.73,1.156" transform="translate(-20.1 -361.539)" fill="#fff"/>
  <path id="Path_54376" data-name="Path 54376" d="M115.63,407.889a1.933,1.933,0,0,1-.483,1.317,1.553,1.553,0,0,1-1.232.55h-4a1.559,1.559,0,0,1-1.242-.55,1.959,1.959,0,0,1-.474-1.317V403.7h1.412v4.189c0,.3.095.455.3.455h3.99c.2,0,.294-.152.294-.455V403.7h1.422v4.189" transform="translate(-99.851 -382.178)" fill="#fff"/>
  <path id="Path_54377" data-name="Path 54377" d="M203.421,407.989a1.955,1.955,0,0,1-.455,1.3,1.583,1.583,0,0,1-1.251.559h-5.222v-1.412h5.222c.2,0,.294-.152.294-.445s-.095-.455-.294-.455h-3.8a1.581,1.581,0,0,1-1.241-.559,1.905,1.905,0,0,1-.474-1.3,1.933,1.933,0,0,1,.483-1.317,1.562,1.562,0,0,1,1.232-.559h5.222v1.422h-5.222c-.2,0-.294.152-.294.455s.095.455.294.455h3.8a1.614,1.614,0,0,1,1.251.559,1.969,1.969,0,0,1,.455,1.3" transform="translate(-179.511 -382.268)" fill="#fff"/>
  <rect id="Rectangle_12620" data-name="Rectangle 12620" width="1.412" height="6.065" transform="translate(24.65 21.522)" fill="#fff"/>
  <path id="Path_54378" data-name="Path 54378" d="M311.054,409.765h-1.412l-3.63-4.085v4.085H304.6V403.7h1.412l3.63,4.056V403.7h1.412v6.065" transform="translate(-277.638 -382.178)" fill="#fff"/>
  <path id="Path_54379" data-name="Path 54379" d="M388.663,405.122h-5.042v.91h4.71v1.412h-4.71v.9h5.023v1.422H382.2V403.7h6.463v1.422" transform="translate(-347.884 -382.178)" fill="#fff"/>
  <path id="Path_54380" data-name="Path 54380" d="M467.021,407.989a1.955,1.955,0,0,1-.455,1.3,1.57,1.57,0,0,1-1.251.559H460.1v-1.412h5.212c.2,0,.294-.152.294-.445s-.095-.455-.294-.455h-3.791a1.614,1.614,0,0,1-1.251-.559,1.905,1.905,0,0,1-.474-1.3,1.933,1.933,0,0,1,.483-1.317,1.562,1.562,0,0,1,1.232-.559h5.212v1.422h-5.212c-.2,0-.294.152-.294.455s.095.455.294.455h3.8a1.614,1.614,0,0,1,1.251.559,1.92,1.92,0,0,1,.455,1.3" transform="translate(-418.13 -382.268)" fill="#fff"/>
  <path id="Path_54381" data-name="Path 54381" d="M551.121,407.989a1.955,1.955,0,0,1-.455,1.3,1.578,1.578,0,0,1-1.242.559h-5.231v-1.412h5.222c.2,0,.294-.152.294-.445s-.095-.455-.294-.455h-3.8a1.628,1.628,0,0,1-1.251-.559,1.9,1.9,0,0,1-.464-1.3,1.933,1.933,0,0,1,.483-1.317,1.562,1.562,0,0,1,1.232-.559h5.222v1.422h-5.222c-.2,0-.294.152-.294.455s.095.455.294.455h3.8a1.608,1.608,0,0,1,1.241.559,1.882,1.882,0,0,1,.464,1.3" transform="translate(-494.26 -382.268)" fill="#fff"/>
  <path id="Path_54382" data-name="Path 54382" d="M27.233,406.695a1.538,1.538,0,0,1,.739,1.4,1.635,1.635,0,0,1-1.706,1.668H20.4V403.7h5.762a1.62,1.62,0,0,1,1.7,1.677,1.559,1.559,0,0,1-.625,1.317m-1.071-.654c.2,0,.3-.152.3-.464s-.095-.455-.3-.455h-4.34v.919Zm.1,2.3c.208,0,.313-.152.313-.445s-.1-.455-.313-.455H21.812v.91h4.454Z" transform="translate(-20.372 -382.178)" fill="#fff"/>
</svg>
