<svg xmlns="http://www.w3.org/2000/svg" width="16" height="16" viewBox="0 0 16 16">
  <g id="Ic_Casino" transform="translate(-11712 18549.719)">
    <rect id="Rectangle_11898" data-name="Rectangle 11898" width="16" height="16" transform="translate(11712 -18549.719)" fill="none"/>
    <g id="_06-king" data-name="06-king" transform="translate(11712.133 -18549.441)">
      <g id="Glyph">
        <path id="Path_48171" data-name="Path 48171" d="M7.788,0a7.788,7.788,0,1,0,7.788,7.788A7.788,7.788,0,0,0,7.788,0Zm0,14.278a6.49,6.49,0,1,1,6.49-6.49A6.49,6.49,0,0,1,7.788,14.278Z" fill="#cacacc"/>
        <path id="Path_48172" data-name="Path 48172" d="M29.841,24a5.841,5.841,0,1,0,5.841,5.841A5.841,5.841,0,0,0,29.841,24Zm0,3.245a.649.649,0,1,1-.649.649A.649.649,0,0,1,29.841,27.245Zm-3.894,1.3a.649.649,0,1,1,.649.649A.649.649,0,0,1,25.947,28.543Zm6.49,3.894H27.245l-.406-3,1.7,1.055,1.3-1.947,1.3,1.947,1.622-1.055Zm.649-3.245a.649.649,0,1,1,.649-.649A.649.649,0,0,1,33.086,29.192Z" transform="translate(-22.053 -22.053)" fill="#cacacc"/>
      </g>
    </g>
  </g>
</svg>
