<svg xmlns="http://www.w3.org/2000/svg" width="24" height="24" viewBox="0 0 24 24">
  <g id="Ic_live" transform="translate(-7651 3966.025)">
    <rect id="Rectangle_10724" data-name="Rectangle 10724" width="24" height="24" transform="translate(7651 -3966.025)" fill="none"/>
    <g id="noun_live_2146857" transform="translate(7651.613 -3962.183)">
      <g id="Group_26594" data-name="Group 26594">
        <path id="Path_42842" data-name="Path 42842" d="M78,15.432A1.039,1.039,0,0,0,76.532,16.9a9.388,9.388,0,0,1,0,13.268,1.032,1.032,0,0,0,0,1.469,1.044,1.044,0,0,0,.722.313.95.95,0,0,0,.722-.313A11.474,11.474,0,0,0,78,15.432Z" transform="translate(-58.479 -15.125)" fill="#868a94"/>
        <path id="Path_42843" data-name="Path 42843" d="M63.7,29.632A1.039,1.039,0,0,0,62.232,31.1a4.527,4.527,0,0,1,0,6.405,1.032,1.032,0,0,0,0,1.469,1.044,1.044,0,0,0,.722.313.95.95,0,0,0,.722-.313A6.569,6.569,0,0,0,63.7,29.632Z" transform="translate(-47.622 -25.906)" fill="#868a94"/>
        <path id="Path_42844" data-name="Path 42844" d="M7.335,16.9a1.039,1.039,0,0,0-1.469-1.469,11.467,11.467,0,0,0,0,16.181,1.044,1.044,0,0,0,.722.313.95.95,0,0,0,.722-.313,1.032,1.032,0,0,0,0-1.469A9.381,9.381,0,0,1,7.335,16.9Z" transform="translate(-2.525 -15.125)" fill="#868a94"/>
        <path id="Path_42845" data-name="Path 42845" d="M25.976,31.1a1.039,1.039,0,0,0-1.469-1.469,6.613,6.613,0,0,0,0,9.343,1.044,1.044,0,0,0,.722.313.95.95,0,0,0,.722-.313,1.032,1.032,0,0,0,0-1.469A4.571,4.571,0,0,1,25.976,31.1Z" transform="translate(-17.747 -25.906)" fill="#868a94"/>
      </g>
      <circle id="Ellipse_123" data-name="Ellipse 123" cx="1.758" cy="1.758" r="1.758" transform="translate(9.674 6.64)" fill="#868a94"/>
    </g>
  </g>
</svg>
