<svg xmlns="http://www.w3.org/2000/svg" width="16" height="16" viewBox="0 0 16 16">
  <g id="Ic_Live_casino" transform="translate(-11806 18555)">
    <rect id="Rectangle_11899" data-name="Rectangle 11899" width="16" height="16" transform="translate(11806 -18555)" fill="none"/>
    <path id="icons8-female-user" d="M2.1,14.119V13.69c0-1.35,2.331-2.578,4.542-3.009a1.509,1.509,0,0,0,.185-.858,22.03,22.03,0,0,0-3.561.614C3.267,3.069,4.679,0,8.485,0A1.726,1.726,0,0,1,10.02.614c2.086,0,3.683,1.228,3.683,9.822a15.8,15.8,0,0,0-3.5-.614,2.124,2.124,0,0,0,.122.858c2.211.432,4.542,1.659,4.542,3.009v.429c0,.858-3.314,1.779-6.383,1.779C5.478,15.838,2.1,15.532,2.1,14.119Z" transform="translate(11805.898 -18555)" fill="#cacacc"/>
  </g>
</svg>
