<svg xmlns="http://www.w3.org/2000/svg" width="24" height="24" viewBox="0 0 24 24">
  <g id="Ic_support" transform="translate(-6110 20457)">
    <rect id="Rectangle_12097" data-name="Rectangle 12097" width="24" height="23.674" transform="translate(6110 -20456.674)" fill="none"/>
    <g id="Group_33488" data-name="Group 33488" transform="translate(6111.887 -20457)">
      <g id="Group_33481" data-name="Group 33481" transform="translate(15.866 9.013)">
        <path id="Path_49096" data-name="Path 49096" d="M749.633,412.141h.324a1.938,1.938,0,0,0,1.932-1.932v-5.076a1.938,1.938,0,0,0-1.932-1.932h-.324a1.938,1.938,0,0,0-1.932,1.932v5.076A1.938,1.938,0,0,0,749.633,412.141Z" transform="translate(-747.451 -402.947)" fill="#cbd1e6"/>
        <g id="Group_33480" data-name="Group 33480" transform="translate(0)">
          <path id="Path_49097" data-name="Path 49097" d="M739.81,402.442a5.072,5.072,0,0,0,.513-.01,2.183,2.183,0,0,0,1.92-1.62,2.837,2.837,0,0,0,.072-.738v-4.846a2.216,2.216,0,0,0-1.727-2.178,3.358,3.358,0,0,0-.686-.05,2.4,2.4,0,0,0-.738.1,2.2,2.2,0,0,0-1.306,1.117,3.719,3.719,0,0,0-.228,1.7v4.207a2.452,2.452,0,0,0,.136.887,2.205,2.205,0,0,0,2.044,1.43.248.248,0,0,0,0-.5,1.706,1.706,0,0,1-1.685-1.707v-1.457c0-1.2-.01-2.4,0-3.595a1.7,1.7,0,0,1,.552-1.246,1.778,1.778,0,0,1,1.246-.439,2.434,2.434,0,0,1,.614.05,1.685,1.685,0,0,1,1.281,1.635c.01,1.177,0,2.351,0,3.528v1.514a1.723,1.723,0,0,1-.307,1,1.683,1.683,0,0,1-1.241.714c-.154.01-.307,0-.461,0A.247.247,0,0,0,739.81,402.442Z" transform="translate(-737.628 -393)" fill="#cbd1e6"/>
        </g>
      </g>
      <g id="Group_33483" data-name="Group 33483" transform="translate(0 9.013)">
        <path id="Path_49098" data-name="Path 49098" d="M109.232,412.141h.325a1.938,1.938,0,0,0,1.932-1.932v-5.076a1.938,1.938,0,0,0-1.932-1.932h-.325a1.938,1.938,0,0,0-1.932,1.932v5.076A1.938,1.938,0,0,0,109.232,412.141Z" transform="translate(-107.05 -402.947)" fill="#cbd1e6"/>
        <g id="Group_33482" data-name="Group 33482">
          <path id="Path_49099" data-name="Path 49099" d="M99.41,402.442a5.072,5.072,0,0,0,.513-.01,2.183,2.183,0,0,0,1.92-1.62,2.841,2.841,0,0,0,.072-.738v-4.846a2.216,2.216,0,0,0-1.727-2.178A3.358,3.358,0,0,0,99.5,393a2.4,2.4,0,0,0-.738.1,2.2,2.2,0,0,0-1.306,1.117,3.718,3.718,0,0,0-.228,1.7v4.207a2.452,2.452,0,0,0,.136.887,2.205,2.205,0,0,0,2.044,1.43.248.248,0,0,0,0-.5,1.706,1.706,0,0,1-1.685-1.707v-1.457c0-1.2-.01-2.4,0-3.595a1.7,1.7,0,0,1,.552-1.246,1.778,1.778,0,0,1,1.246-.439,2.435,2.435,0,0,1,.614.05,1.685,1.685,0,0,1,1.281,1.635c.01,1.177,0,2.351,0,3.528v1.514a1.724,1.724,0,0,1-.307,1,1.683,1.683,0,0,1-1.241.714c-.154.01-.307,0-.461,0A.247.247,0,0,0,99.41,402.442Z" transform="translate(-97.228 -393)" fill="#cbd1e6"/>
        </g>
      </g>
      <g id="Group_33485" data-name="Group 33485" transform="translate(0.002 0)">
        <g id="Group_33484" data-name="Group 33484">
          <path id="Path_49100" data-name="Path 49100" d="M98.786,37.277V31.5a11.522,11.522,0,0,1,.087-1.6c-.01.066-.017.129-.027.2a9.278,9.278,0,0,1,.664-2.384l-.074.176a9.52,9.52,0,0,1,.664-1.268c.124-.2.253-.388.391-.576.035-.049.072-.1.107-.142.012-.017.027-.034.04-.051.079-.105-.119.149-.037.046s.149-.186.228-.274a9.521,9.521,0,0,1,.993-1c.087-.073.173-.147.263-.22.042-.034.084-.068.126-.1s.149-.11-.047.034l.079-.059c.191-.142.389-.278.592-.405a9.692,9.692,0,0,1,1.425-.74l-.178.073a9.624,9.624,0,0,1,2.418-.655l-.2.027a9.683,9.683,0,0,1,2.549,0l-.2-.027a9.624,9.624,0,0,1,2.418.655l-.178-.073a9.759,9.759,0,0,1,1.286.655c.2.122.394.249.585.386.05.034.1.071.144.105l.052.039c.107.078-.151-.117-.047-.037s.188.147.277.225a9.53,9.53,0,0,1,1.013.979c.074.085.149.171.223.259.035.042.069.083.1.125s.111.147-.035-.046l.059.078c.144.188.282.383.411.584a9.462,9.462,0,0,1,.751,1.4l-.074-.176A9.278,9.278,0,0,1,116.3,30.1c-.01-.066-.017-.129-.027-.2a12.161,12.161,0,0,1,.087,1.644v6.179a10.776,10.776,0,0,1-.042,1.414c.01-.066.017-.129.027-.2a4.574,4.574,0,0,1-.307,1.111l.074-.176a4.525,4.525,0,0,1-.419.767c-.04.059-.082.115-.121.171-.092.127.109-.132.027-.034-.02.024-.04.051-.062.076-.094.112-.191.217-.295.32s-.213.2-.325.291c-.025.02-.05.042-.077.061-.1.081.146-.107.047-.037-.062.044-.124.088-.186.129a4.633,4.633,0,0,1-.778.413l.178-.073a4.714,4.714,0,0,1-1.127.3l.2-.027a9.117,9.117,0,0,1-1.212.042h-1.89a.733.733,0,1,0,0,1.465h1.89c.238,0,.478,0,.716,0a5.493,5.493,0,0,0,2-.442A5.2,5.2,0,0,0,117.3,40.84a5.4,5.4,0,0,0,.538-1.937c.015-.181.015-.361.015-.542V31.154a9.842,9.842,0,0,0-.652-3.532,10.4,10.4,0,0,0-1.888-3.114,10.277,10.277,0,0,0-6.095-3.349,10.7,10.7,0,0,0-3.833.1A10.227,10.227,0,0,0,102.1,22.6a10.374,10.374,0,0,0-2.646,2.384,10.109,10.109,0,0,0-1.68,3.153,10,10,0,0,0-.471,3.055v6.079a.747.747,0,0,0,.743.733.737.737,0,0,0,.743-.723Z" transform="translate(-97.3 -21.033)" fill="#cbd1e6"/>
        </g>
      </g>
      <g id="Group_33487" data-name="Group 33487" transform="translate(7.553 19.949)">
        <path id="Path_49101" data-name="Path 49101" d="M426.825,860.541a1.535,1.535,0,0,1-1.531,1.531h-1.665a1.523,1.523,0,0,1-1.08-.448A1.538,1.538,0,0,1,423.631,859h1.662a1.548,1.548,0,0,1,1.531,1.541Z" transform="translate(-421.604 -858.514)" fill="#cbd1e6"/>
        <g id="Group_33486" data-name="Group 33486">
          <path id="Path_49102" data-name="Path 49102" d="M406.805,841.427c0,.035,0,.069,0,.1,0,.012,0,.022,0,.035,0,.054,0,.045,0-.032a.744.744,0,0,1-.035.163.678.678,0,0,1-.052.156c.007-.02.017-.04.025-.057-.01.02-.017.04-.027.06s-.03.057-.047.087-.032.055-.052.082c0,.01-.012.017-.017.027-.025.035-.025.035,0,0,.007-.007.012-.017.02-.025-.012.017-.027.032-.042.049l-.064.072c-.037.04-.079.074-.119.109-.079.069.072-.04.01-.01-.032.017-.062.042-.094.062s-.094.052-.144.077c-.1.052.107-.035,0,0a.709.709,0,0,0-.077.027c-.059.017-.116.03-.178.042-.1.022.032-.005.032,0s-.121.01-.136.01c-.074,0-.146,0-.221,0h-1.516c-.035,0-.067-.005-.1-.005s-.027,0,.032.005l-.077-.015a1.8,1.8,0,0,1-.188-.052c-.121-.037.089.049-.025-.007-.027-.015-.057-.027-.084-.045a.828.828,0,0,1-.176-.114c.077.074.027.022.012.007-.037-.035-.074-.067-.109-.1-.022-.022-.042-.047-.064-.072-.052-.055.062.1,0,0-.035-.055-.069-.107-.1-.164a.664.664,0,0,1-.05-.1c.042.119,0-.007-.005-.025a.746.746,0,0,1-.054-.228c0,.107,0,.04,0,.012s-.005-.082-.005-.121a.634.634,0,0,1,.01-.171.565.565,0,0,1-.01.064.657.657,0,0,1,.012-.067c.005-.022.01-.045.015-.064s.017-.064.027-.094.04-.144.02-.064.007-.015.015-.03.03-.057.047-.087.074-.139.089-.136l-.037.049c.012-.017.027-.032.042-.049s.027-.032.042-.047a1.782,1.782,0,0,1,.141-.131c.084-.074-.092.06,0,0,.027-.017.055-.037.082-.052.047-.027.094-.052.144-.077.094-.049-.079.02-.012.005.025-.005.052-.02.077-.027a1.829,1.829,0,0,1,.193-.047c.114-.025-.116.007,0,0l.067,0,.077,0h1.68c.035,0,.067,0,.1.005.057,0,.052,0-.012,0l.077.015a.613.613,0,0,1,.223.067c-.067-.052-.045-.022-.012-.005a1.379,1.379,0,0,1,.134.072c.027.017.055.035.079.052.1.072-.035-.04.035.027s.109.107.161.161c.087.089-.052-.084.015.02.02.032.042.062.062.1s.037.067.055.1.074.1.012.022a.667.667,0,0,1,.067.223c0,.027.047.141.007.025a.6.6,0,0,1,0,.151.5.5,0,1,0,.991,0,2.044,2.044,0,0,0-1.13-1.813,2.137,2.137,0,0,0-.909-.213h-1.425a2.414,2.414,0,0,0-1.211.255,2.026,2.026,0,0,0-.112,3.471,2.294,2.294,0,0,0,1.316.325h1.093a2.7,2.7,0,0,0,1.308-.24,2.049,2.049,0,0,0,1.07-1.786.5.5,0,0,0-.5-.5A.509.509,0,0,0,406.805,841.427Z" transform="translate(-402.08 -839.4)" fill="#cbd1e6"/>
        </g>
      </g>
    </g>
  </g>
</svg>
