<svg xmlns="http://www.w3.org/2000/svg" width="24" height="24" viewBox="0 0 24 24">
  <g id="Icon_betslip" transform="translate(-9058 18678)">
    <rect id="Rectangle_11886" data-name="Rectangle 11886" width="24" height="24" transform="translate(9058 -18678)" fill="none"/>
    <g id="invoice" transform="translate(9000.368 -18677.869)">
      <path id="Subtraction_35" data-name="Subtraction 35" d="M.695,22a.691.691,0,0,1-.265-.052.7.7,0,0,1-.313-.238A.6.6,0,0,1,0,21.355V3.953H3.461a.663.663,0,0,0,.692-.645.663.663,0,0,0-.692-.645H0V.644A.662.662,0,0,1,.692,0H17.308A.662.662,0,0,1,18,.644h0v2.02H14.538a.663.663,0,0,0-.692.645.663.663,0,0,0,.692.645H18v17.4a.6.6,0,0,1-.116.355.7.7,0,0,1-.313.238.628.628,0,0,1-.258.052.679.679,0,0,1-.489-.194l-2.285-2.114-2.284,2.114a.665.665,0,0,1-.225.145.718.718,0,0,1-.518,0,.665.665,0,0,1-.225-.145L9,19.692,6.715,21.806a.665.665,0,0,1-.225.145.717.717,0,0,1-.518,0,.665.665,0,0,1-.225-.145L3.461,19.692,1.177,21.806A.686.686,0,0,1,.695,22Zm9.69-19.336a.67.67,0,0,0-.692.645.671.671,0,0,0,.692.645h1.385a.671.671,0,0,0,.692-.645.67.67,0,0,0-.692-.645Zm-4.154,0a.67.67,0,0,0-.692.645.671.671,0,0,0,.692.645H7.615a.671.671,0,0,0,.692-.645.67.67,0,0,0-.692-.645Z" transform="translate(60.632 0.869)" fill="#868a94"/>
    </g>
  </g>
</svg>
