<svg id="Group_38567" data-name="Group 38567" xmlns="http://www.w3.org/2000/svg" width="71.542" height="30.972" viewBox="0 0 71.542 30.972">
  <g id="The_Sun" transform="translate(0)">
    <path id="Path_54347" data-name="Path 54347" d="M0,0H71.542V30.972H0Z" fill="#eb1701"/>
    <path id="Path_54348" data-name="Path 54348" d="M53.207,42.874C51.633,39.789,47.64,38.1,41.919,38.1c-6.847,0-11.006,2.355-11.006,6.271,0,2.47,1.933,4.121,6,5.183l1.779.461,1.728.461,1.779.461a1.652,1.652,0,0,1,.32.115c.64.256,1.011.627,1.011,1.037,0,.832-1.2,1.408-2.982,1.408-2.867,0-4.313-.576-5.119-2.009L27.7,52.549c1.971,3.571,6.169,5.35,12.7,5.35,6.937,0,11.723-2.739,11.723-6.706,0-2.188-2.176-4.262-5.478-5.068l-1.536-.371-1.536-.4-1.536-.371c-.448-.115-.845-.23-1.2-.346-.883-.256-1.293-.6-1.293-1.088,0-.781,1.011-1.267,2.585-1.267,2.137,0,3.673.666,4.147,1.869Zm19.543,1.8H65.877l-1.51,6.412c-.512,2.15-1.549,3.238-3.1,3.238-.806,0-1.254-.346-1.254-.973a4.686,4.686,0,0,1,.218-1.267L62,44.678H55.011l-1.881,8.1a13.11,13.11,0,0,0-.371,2.214c0,1.677,2.137,2.995,4.863,2.995a7.11,7.11,0,0,0,6.143-2.764l-.589,2.419h6.553Zm1.485,0L71.176,57.643h6.732l1.843-7.781a2.45,2.45,0,0,1,2.572-2.073c1.1,0,1.689.346,1.689,1.024a6.527,6.527,0,0,1-.179,1.049l-1.8,7.781h6.885l2.061-8.856a5.689,5.689,0,0,0,.179-1.318c0-1.894-2.1-3.187-5.183-3.187-2.828,0-4.889.87-5.926,2.5l.512-2.1ZM62.127,39.841h1.305l.218-.973H59.388l-.23.973h1.267L59.657,43.1h1.715Zm4.761,1.574-.4,1.689h1.7l.985-4.211H67.464l-.358,1.549H65.57l.358-1.549h-1.7L63.241,43.1h1.7l.4-1.689Zm6.514.729H70.766l.179-.742H73.07l.218-.921H71.163l.154-.666H73.85l.218-.921H69.845L68.859,43.1h4.313Z" transform="translate(-24.155 -33.224)" fill="#fff"/>
  </g>
</svg>
