<?xml version="1.0" encoding="UTF-8"?>
<svg id="Youtube" width="32" height="32" version="1.1" viewBox="0 0 32 32" xmlns="http://www.w3.org/2000/svg" xmlns:cc="http://creativecommons.org/ns#" xmlns:dc="http://purl.org/dc/elements/1.1/" xmlns:rdf="http://www.w3.org/1999/02/22-rdf-syntax-ns#">
 <metadata>
  <rdf:RDF>
   <cc:Work rdf:about="">
    <dc:format>image/svg+xml</dc:format>
    <dc:type rdf:resource="http://purl.org/dc/dcmitype/StillImage"/>
    <dc:title/>
   </cc:Work>
  </rdf:RDF>
 </metadata>
 <g transform="translate(-1670 -1844)" data-name="Group 33496">
  <rect transform="translate(1670 1844)" width="32" height="32" rx="4" fill="#333438" data-name="Rectangle 12098"/>
 </g>
 <g id="Ic_youtube" transform="translate(-1467 -1932)">
  <rect transform="translate(1467 1932)" width="32" height="32" fill="none" data-name="Rectangle 12110"/>
  <g fill="#868b99" stroke-width=".048422">
   <path d="m1483.2 1938c3.2571 0 3.6429 0.013 4.9293 0.071 1.1893 0.054 1.8352 0.2529 2.265 0.42a3.7794 3.7794 0 0 1 1.4026 0.9125 3.7794 3.7794 0 0 1 0.9125 1.4025c0.1671 0.4299 0.3658 1.0758 0.42 2.2651 0.059 1.2863 0.071 1.6721 0.071 4.9293s-0.013 3.6429-0.071 4.9293c-0.054 1.1894-0.253 1.8352-0.42 2.2651a4.0397 4.0397 0 0 1-2.3151 2.315c-0.4298 0.1671-1.0757 0.3658-2.265 0.4201-1.2861 0.059-1.6719 0.071-4.9293 0.071-3.2575 0-3.6431-0.013-4.9293-0.071-1.1893-0.054-1.8352-0.2531-2.2651-0.4201a3.7793 3.7793 0 0 1-1.4026-0.9125 3.7794 3.7794 0 0 1-0.9125-1.4025c-0.167-0.4299-0.3657-1.0757-0.42-2.2651-0.059-1.2863-0.071-1.6721-0.071-4.9293s0.013-3.6429 0.071-4.9293c0.054-1.1893 0.253-1.8351 0.42-2.2651a3.7794 3.7794 0 0 1 0.9126-1.4026 3.7794 3.7794 0 0 1 1.4026-0.9125c0.4298-0.167 1.0757-0.3658 2.2651-0.42 1.2863-0.059 1.672-0.071 4.9293-0.071m0-2.1979c-3.3129 0-3.7285 0.014-5.0294 0.073-1.2984 0.059-2.1851 0.2654-2.961 0.567a5.9795 5.9795 0 0 0-2.1605 1.407 5.9795 5.9795 0 0 0-1.4074 2.1606c-0.3013 0.7759-0.5075 1.6626-0.5665 2.961-0.06 1.3009-0.074 1.7165-0.074 5.0294s0.014 3.7284 0.074 5.0293c0.059 1.2984 0.2654 2.1851 0.567 2.961a5.9795 5.9795 0 0 0 1.407 2.1606 5.9794 5.9794 0 0 0 2.1605 1.407c0.776 0.3015 1.6626 0.5077 2.961 0.567 1.3011 0.059 1.7165 0.073 5.0294 0.073 3.3128 0 3.7284-0.014 5.0293-0.073 1.2984-0.059 2.1851-0.2655 2.961-0.567a6.2375 6.2375 0 0 0 3.5676-3.5676c0.3015-0.7759 0.5077-1.6626 0.567-2.961 0.059-1.3011 0.073-1.7165 0.073-5.0293 0-3.3129-0.014-3.7285-0.073-5.0294-0.059-1.2984-0.2655-2.1851-0.567-2.961a5.9794 5.9794 0 0 0-1.407-2.1605 5.9794 5.9794 0 0 0-2.1607-1.4073c-0.776-0.3014-1.6627-0.5075-2.9611-0.5666-1.3009-0.06-1.7164-0.074-5.0293-0.074z"/>
   <path d="m1483.2 1941.8a6.264 6.264 0 1 0 6.264 6.2641 6.264 6.264 0 0 0-6.264-6.2641zm0 10.33a4.0661 4.0661 0 1 1 4.0661-4.0661 4.0661 4.0661 0 0 1-4.0661 4.0661z"/>
   <circle cx="1489.7" cy="1941.5" r="1.4638"/>
  </g>
 </g>
</svg>
