<svg id="Group_38568" data-name="Group 38568" xmlns="http://www.w3.org/2000/svg" width="162.743" height="26.526" viewBox="0 0 162.743 26.526">
  <g id="daily-mail">
    <path id="Path_54356" data-name="Path 54356" d="M91,96.792l.362.271a6.737,6.737,0,0,1,.023-1.087.892.892,0,0,0-.34.52l-.385.045.34.25Zm14.841,2.944a.246.246,0,0,0-.228-.157.276.276,0,0,0,0,.543.257.257,0,0,0,.25-.271c0-.044-.022-.069-.022-.114Zm-.009-1.063a.252.252,0,0,1,.009.067.279.279,0,0,1-.182.257v.334a.455.455,0,0,1,.319.179.566.566,0,0,1,.112.34.5.5,0,0,1-.342.5c.559-.044.909-.094.909-.094-.544-.114-.228-.431-.228-.431a2.853,2.853,0,0,1,.725-.364,1.377,1.377,0,0,1-1.02-.792h-.3v0Zm-.285,1.693a.539.539,0,0,1-.023-1.026v-.332a.3.3,0,0,1-.248-.246l0,0a1.7,1.7,0,0,1-.431.067.118.118,0,0,0,.045.159c.476.34.159.657.159.657-.226.2-.34.2-.34.2a3.874,3.874,0,0,0-.77.544c.606.019,1.16,0,1.609-.029Zm-6.209-2.1a.2.2,0,0,0,.114-.036l.452.2a.232.232,0,0,0,.2.25.2.2,0,0,0,.169-.11l.383.056a.215.215,0,0,0,.2.19.247.247,0,0,0,.224-.235l.32-.152a.193.193,0,0,0,.159.093.249.249,0,0,0,.226-.25l.2-.338a5.936,5.936,0,0,0,1.156-.023,10.154,10.154,0,0,1,1.11-.5,2.915,2.915,0,0,0-.478.385,3.449,3.449,0,0,0-.317.362.607.607,0,0,0-.25.522.874.874,0,0,0,.135.362.844.844,0,0,0,.273.2l.25.226a2.286,2.286,0,0,1-.658.271.91.91,0,0,1-.588-.067c-.794-.181-1.065.181-1.065.181a.765.765,0,0,1-.454.2l.135.2a.528.528,0,0,1-.452-.023,1.684,1.684,0,0,1,.181-.77c-.091-.611-1.36-.5-1.36-.5l-.316-.3-.069-.069-.725-.68a2.093,2.093,0,0,1-.2.749,3.62,3.62,0,0,1-.2.385l-.271-.137a.781.781,0,0,0,.112-.248,8.82,8.82,0,0,0,.385-1.315,1.391,1.391,0,0,1,.34.045,1.3,1.3,0,0,0,.114.069c.053.025.11.049.172.074l.25.355a.278.278,0,0,0-.036.137c0,.135.067.226.181.226Zm2.53-.353-.132.188a.216.216,0,0,0-.177-.106c-.114,0-.2.112-.2.271a.235.235,0,0,0,.007.063l-.289.135a.26.26,0,0,0-.217-.2c-.112,0-.2.135-.2.271l-.345-.059a.256.256,0,0,0,.006-.053c0-.135-.093-.273-.2-.273a.218.218,0,0,0-.186.17l-.4-.181a.246.246,0,0,0,.019-.1.223.223,0,0,0-.2-.226.127.127,0,0,0-.053.009l-.106-.192h0a11.746,11.746,0,0,0,1.293.319h.5l.159-.25a2.06,2.06,0,0,0,.741.213Zm-2.685-3.869c.019.023.036.044.055.064l-.029.051a.1.1,0,0,0-.051-.017.176.176,0,0,0-.159.181l-.021-.022-.182-.2-.067-.068-.408-.431c-.476-.634-1.2,0-1.2,0l-.112-.091a.3.3,0,0,0,.045-.521l.747-1.926-.2-.249c.364-.748-.407-.77-.407-.77-.228-.68-.635-.362-.635-.362-.135-.657-.635-.318-.635-.318a.4.4,0,0,0-.611-.181l.021-1.065-.5.022-.545-.022.045,1.087a.4.4,0,0,0-.635.272c-.633-.363-.633.34-.633.34-.522-.159-.5.34-.5.34a.6.6,0,0,0-.611.68l.543,1.858A28.659,28.659,0,0,1,90.755,95l-.681-.2-.045-.113a.332.332,0,0,0,.272.045,1.946,1.946,0,0,1,.022-.68c.2-.883-.158-1.2-.158-1.2a1.715,1.715,0,0,0-.227-.793c.34-.431-.158-.861-.158-.861l-.069-.114-.022-.929c-.091,0-.136-.114-.136-.114-.136-.385-.385-.135-.385-.135a.267.267,0,0,0-.476-.091.289.289,0,0,0-.5,0l-.2-.657-.68.271.227.725c-.5-.114-.34.385-.34.385-.431.022-.227.407-.227.407-.407.045-.249.5-.249.5l.453.747c-.363.407-.022.68-.022.68.114.2.25.2.25.2a1.96,1.96,0,0,0,.068,1.246,3.9,3.9,0,0,1-1.11.815,6.993,6.993,0,0,1-1.065.408c-.884.2-2.628.77-2.628.77-.612.157-1.586.452-1.586.452-1.223.364-1.541-.021-1.541-.021-.294-.182-.068-.658-.068-.658a1.454,1.454,0,0,1,.907-.725,3.843,3.843,0,0,1,.589.431,1.11,1.11,0,0,0,.748.25l.022-.091a.65.65,0,0,0,.34-.045.452.452,0,0,1-.136-.294c0-.113-.158-.294-.158-.294l3.149-.136c.114-.021.2-.021.294-.045a2.881,2.881,0,0,0,1.337-.453,1.494,1.494,0,0,0,.431-1.564,1.516,1.516,0,0,0-1.2-1,2.609,2.609,0,0,0-1.065-.068,4.739,4.739,0,0,1-1.042-.158c-.023.135.271.566.271.566a.765.765,0,0,1-.566-.181,1.114,1.114,0,0,0-.952-.181,4.1,4.1,0,0,0,.635.635A4.447,4.447,0,0,1,81.9,92.4a2.019,2.019,0,0,0,2.922,1.246,5.22,5.22,0,0,1,.861-.431.493.493,0,0,1,.68.318c-.045.77-.612.793-.612.793a14.932,14.932,0,0,1-3.807.113,1.71,1.71,0,0,0,.182-.725l-.182.045c-.951-.091-1.2.114-1.2.114a1.385,1.385,0,0,0-.5.634,3.6,3.6,0,0,0-1.02.634,2.292,2.292,0,0,0-.7,1.292c-.045.816.407.93.407.93-.407.792.2,1.087.2,1.087a1.356,1.356,0,0,0,.385-.431,8,8,0,0,1,2.13-.747,2.3,2.3,0,0,0-.5,1,1.44,1.44,0,0,1-.725-.069c-.249-.021-.249.182-.249.182l-.114.271-.158.5c-.974-.045-.838.52-.838.52l-.136,1.518c.227.566.589.476.589.476V101.1h.249a1.382,1.382,0,0,0,.748.747h.136c.158-.045.227.182.227.182l.158.021.022-.385.181-.021c.114.045.181.226.181.226h.135a1.447,1.447,0,0,0,.069-.34c.181-.114.135-.52.135-.52a1.648,1.648,0,0,1,.748.069l-.022.338a1.047,1.047,0,0,0,.612.522,4.668,4.668,0,0,0,.974.135c.7.045,1.586.021,2.4,0q1.328-.067,2.651-.2c.091.135.135.114.135.114.385.135.816-.273.816-.273l-.135.273a1.587,1.587,0,0,0,.612-.228.625.625,0,0,0,.317.228l.069-.069.091.135a.858.858,0,0,0,.294-.407.674.674,0,0,0,.5.135l.091.135.067-.114a3.189,3.189,0,0,0,.385.2,1.094,1.094,0,0,0,.159-.837l.069.112.067-.271a.578.578,0,0,0,.364.135c-.431.181-.182.5-.182.5a.506.506,0,0,0,.228.2.287.287,0,0,1,.317.228.434.434,0,0,0,.544-.2l.045-.271a1.267,1.267,0,0,1-.069-.408l.069.294.112.069.77.611.658-.544a1.725,1.725,0,0,0,.861.25c.181,0,.045-.226.045-.226a2.185,2.185,0,0,0,1.472.362c.135-.112.045-.181.045-.181.159-.069.431.159.431.159a.684.684,0,0,0,.566.021.179.179,0,0,0-.135-.135c.159,0,.069-.226.069-.226a.558.558,0,0,1,.294.2.417.417,0,0,0,.385.137l.021-.114a1.3,1.3,0,0,0,.52.135.2.2,0,0,0,.023-.226,15.084,15.084,0,0,0,4.055.407c3.15-.021,3.581-.633,3.581-.633a.3.3,0,0,0,.045-.294v-.181a.626.626,0,0,1,.408-.023l-.228.476-.067.159c.543.611,1.358-.069,1.358-.069v-.2a.87.87,0,0,0,.294-.248l.364.091a.687.687,0,0,1-.091.431.643.643,0,0,0,.769-.431l-.293-1.52a1.614,1.614,0,0,0-1.27-.431l-.023-.385a.433.433,0,0,0-.34-.248l-.175-.063-.165.063c-.25.021-.613.021-.613.021v-.021l.045-.522v-.588l-.045-.2.478.069a4.261,4.261,0,0,0,1.2.157.438.438,0,0,1,.271.385l-.091.319c.77-.069.68-.93.68-.93.543-.454.407-1.677.407-1.677a1.2,1.2,0,0,0-.25-.544l-.021-.021a1.319,1.319,0,0,0-.77-1.111.5.5,0,0,0-.294-.114,1.249,1.249,0,0,1-.431-.34.982.982,0,0,0-.045.951,16.534,16.534,0,0,0-2.721.363,3.418,3.418,0,0,1-1.448-.158c-.568-.318-.476-.725-.476-.725.112-.657.657-.567.657-.567h.159a1.329,1.329,0,0,1,.816.091,4.89,4.89,0,0,0,2.649,0,2.054,2.054,0,0,0,1.044-1.383,1.349,1.349,0,0,1-1.065.408,2.822,2.822,0,0,0-.34.091.959.959,0,0,1,.543-.567,1.439,1.439,0,0,0-1.222.181,2.133,2.133,0,0,1-1.02.453,1.706,1.706,0,0,0,.794-.77,1.991,1.991,0,0,1-.951.158,2.842,2.842,0,0,0-1.949.657,1.585,1.585,0,0,0-.476,1.813,1.177,1.177,0,0,0,.68.589,3.025,3.025,0,0,0,.882.25,18.45,18.45,0,0,0,2.97-.114,1.834,1.834,0,0,1,.385-.045,1.45,1.45,0,0,0-.431.884,2,2,0,0,1,.633-.135l-.021.091a2.56,2.56,0,0,1,.792,0,.244.244,0,0,0,.273-.181c.271.407-.273.861-.273.861-.317.317-1.019.067-1.019.067a5.766,5.766,0,0,0-1.383-.25,10.724,10.724,0,0,0-2.243-.633.245.245,0,0,0-.317-.114l-.182-.023a.389.389,0,0,0-.588-.181,3.92,3.92,0,0,1-1.044-.476.836.836,0,0,1-.2-.135,3.737,3.737,0,0,0,1.019-2.492,2.224,2.224,0,0,0-1.653-2.153,1.169,1.169,0,0,0-.951-.589l-.045.114.067.158c-.021.114.114.318.114.318l-.294.068-1.835-1.065c-.452-.113-.271.271-.271.271l.091.136,1.586,1.246a3.027,3.027,0,0,1-.7.725l-.2.045-.25.271.023.363a.734.734,0,0,1-.364.091l-.021.227c.157.227.611.227.611.227l.362.362a.169.169,0,0,0,.2-.022l.317-.362.431-.2a1,1,0,0,0,.319.091,1.892,1.892,0,0,0-.611.544,1.748,1.748,0,0,0-.658.022l-.045.249-.013.06-.1-.06a.38.38,0,0,0-.658-.249.514.514,0,0,0-.041.649Zm.01.474a.214.214,0,0,0,.1-.2.182.182,0,0,0-.017-.076l.031-.076a.4.4,0,0,0,.251.088c.233-.007.324-.344.324-.344h.056l-.056.271a1.627,1.627,0,0,0-.431.589l-.257-.256Zm.142-.647a.263.263,0,0,1,.139-.364c.317-.045.25.362.25.362-.085.106-.154.146-.21.151C99.394,94.028,99.34,93.871,99.338,93.869ZM86.97,98.649a1.542,1.542,0,0,1-.907.408l-.182.293.431.114.091.045.385.114a.245.245,0,0,1,.318-.2s.2-.544,1.02-.362a.442.442,0,0,1,.317.045,1.27,1.27,0,0,1,.2.157l-.091-.294a.3.3,0,0,1,.317-.091.958.958,0,0,1-.158-.226.84.84,0,0,1-.158-.454,1.129,1.129,0,0,1,.544-.067v-.25h.158l-.294-.181a2.1,2.1,0,0,1-2.153.431,3.343,3.343,0,0,1-.793-.34,1.161,1.161,0,0,0,1.133.657,1.86,1.86,0,0,1-.181.2Zm-3.648,0a8.184,8.184,0,0,0,1.246.2,1.611,1.611,0,0,1-.2.181,1.214,1.214,0,0,1-.453.25,1.149,1.149,0,0,0-.068.635,1.2,1.2,0,0,0,.453.226c.227.091.453.159.453.159a2.1,2.1,0,0,1-.838,0,1.428,1.428,0,0,1-.407-.093l.113-.226c-.091-.59-.974-.657-.974-.657l.045-.271a1.844,1.844,0,0,0,.272-.408.6.6,0,0,0,.068-.135.967.967,0,0,0,.272.135h.021Zm16.134,1.881a.2.2,0,0,0-.114.181s.045.135.34.226a1.368,1.368,0,0,0-.023-.52.974.974,0,0,0-.2.114Zm-10.333-.409.158-.045a.683.683,0,0,1-.181-.226.472.472,0,0,0-.2-.34l.022.159v.226l.068.069v.181l.136-.023Zm.725.795.023.34.294-.319a.125.125,0,0,1-.114-.067.772.772,0,0,1-.181-.226l-.023.271Zm1.024-2.258a.433.433,0,0,1,.4.091.3.3,0,0,1,.277-.326,6.552,6.552,0,0,1-.907-.25,1.383,1.383,0,0,1-.634-.34l-.2.069-.159.067v.069a1.679,1.679,0,0,1,.657.25v-.093a.834.834,0,0,1,.571.464Zm1.2.9c0-.045.023-.091.023-.159l.34.364a.4.4,0,0,1-.069.362.679.679,0,0,0-.157-.112.423.423,0,0,0-.182-.045L92,99.67A.325.325,0,0,0,92.067,99.555ZM64.516,87.183s3.376,1.722,3.784,2.062c.431.34.2.567.2.567a.942.942,0,0,1-.544.317c-.386.068-.271.385-.271.385l-.045,8.044a2.615,2.615,0,0,0,3.082.725.645.645,0,0,0,.5-.68s.114-7.567.068-7.817a.291.291,0,0,0-.271-.271s-1.4-.884-1.632-1.042c-.25-.158.022-.407.022-.407s2.379-1.654,2.72-1.971a.508.508,0,0,1,.612-.114s3.92,2.2,4.373,2.538.227.453.227.453l-1.11,1.11a.366.366,0,0,0-.114.431l-.045,7.432c-.294,1.9-3.285,2.176-3.285,2.176-3.6.045-5.279-1.5-5.279-1.5a3.851,3.851,0,0,0-3.082-.273c-2.107.725-2.266,2.085-2.266,2.085-.069.975,1.02,1.45,1.02,1.45a4.635,4.635,0,0,0,3.285.317c1.654-.566,4.214-1.427,4.214-1.427a7.615,7.615,0,0,1,2.877-.069,3.737,3.737,0,0,1,2.017,1,3.132,3.132,0,0,1,.861,2.174c.068,2.675-3.218,3.581-3.218,3.581-1.472.294-1.88-.045-1.88-.045-1.043-.228.068-.34.068-.34s-1.9.112.158.021c2.062-.067,2.289-1.063,2.289-1.063.748-1.338-.407-1.564-.407-1.564a5.344,5.344,0,0,0-3.308,1.065,8.434,8.434,0,0,1-6.775.294c-2.991-1.156-2.606-3.376-2.606-3.376a4.833,4.833,0,0,1,1.881-4.01l-.113-8.905a.536.536,0,0,0-.318-.294,6.146,6.146,0,0,1-1.45-.77.241.241,0,0,1,.113-.385l2.878-1.9c.338-.477.769,0,.769,0ZM8.685,85.824c-.431-.294.045-.453.045-.453L13.058,82.2H24.5c2.47.226,2.266,3.4,2.266,3.4l-.045,11.691a9.341,9.341,0,0,0-5.937,4.171c-3.739-1.065-10.151-.114-10.151-.114-.567.045-.181-.385-.181-.385a7.659,7.659,0,0,1,6.48-3.784c.275-.006.544,0,.807.019l.022-11.252-9.076-.119Zm5.71.634c.838-.385.68.182.68.182v6.5a5.661,5.661,0,0,1-2.221,4.238,10.125,10.125,0,0,1-3.059,1.858c-.838.317-.34-.5-.34-.5a4.015,4.015,0,0,0,.793-2.017V88.906a.459.459,0,0,1,.091-.318l4.056-2.13Zm3.727,10.769a11.288,11.288,0,0,1,3.434.9l-.03-5.027-.031.023a2,2,0,0,0-3.366.077Zm3.4-4.636-.012-2.109a2.065,2.065,0,0,1-3.376-.245l0,2.387A2.207,2.207,0,0,1,21.522,92.591Zm-.016-2.659-.02-3.52c.158-.589-.657-.431-.657-.431l-2.686-.035-.006,3.611c1.52,2.519,3.214.565,3.37.375Zm31.271-5.513s4.985-1.608,5.619-1.767c.657-.158.612.158.612.158s-.135,14.184-.022,14.683.34.364.34.364,1.156.816,1.4.928a.272.272,0,0,1,.136.385l-2.81,2.176S53.48,99.33,53.118,99.1c-.453-.319-.158-.5-.158-.5l.816-.816s.135-11.6-.091-12.213a1.683,1.683,0,0,0-.952-.861c-.159-.25.044-.3.044-.3Zm-5.6,2.4a.529.529,0,0,0,.566.318,4.978,4.978,0,0,0,2.538-2.447c.453-1.7-.612-2.152-.612-2.152a1.6,1.6,0,0,0-1.654-.114,3,3,0,0,0-1.383,1.722,3.877,3.877,0,0,0,.544,2.673Zm-.816.77a31.711,31.711,0,0,0-3.173,2.153c-.227.34-.044.5-.044.5s1.269.793,1.608.929c.362.113.226.294.226.294l.091,5.891a2.256,2.256,0,0,1,0,.566s-.5.408-.77.635a.366.366,0,0,0-.069.544l4.555,2.288s3.081-2.221,3.353-2.334,0-.34,0-.34-1.337-.77-1.563-.884a.267.267,0,0,1-.135-.34s-.181-5.825-.045-6.323c.113-.476.271-.318.271-.318a3.334,3.334,0,0,0,.77-.34c.34-.227.023-.431.023-.431s-4.237-2.22-4.554-2.492A.364.364,0,0,0,46.366,87.592ZM27.593,97.4c-.011-.045.351,3.422,4.792,3.988l2.946-2.378a.23.23,0,0,1,.385-.047l4.985,2.425,3.036-2.378a.516.516,0,0,0-.091-.544l-2.108-1.406V91.285s-.022-.271.158-.317l.816-.657s.136-.227-.135-.521c-.25-.317-5.212-2.764-5.212-2.764s-.181-.271-.635.045c0,0-5.415,2.175-7.545,4.962,0,0-1.7,1.087-1.393,5.37Zm4.249-1.858a5.041,5.041,0,0,1-.407-3.354A3.069,3.069,0,0,1,33.428,89.7l2.606,1.7L35.988,98.1s-.34.568-1.178.182a7.346,7.346,0,0,1-2.969-2.742Zm124.872-7.773a28.281,28.281,0,0,0-3.173,2.153c-.226.34-.045.5-.045.5a16.505,16.505,0,0,0,1.609.907c.362.114.226.317.226.317l.091,5.891a2.257,2.257,0,0,1,0,.566s-.5.385-.77.613a.363.363,0,0,0-.067.543l4.554,2.311s3.082-2.221,3.353-2.357c.271-.112,0-.34,0-.34s-1.315-.77-1.563-.882a.266.266,0,0,1-.137-.34s-.181-5.824-.045-6.322c.114-.453.273-.317.273-.317a3.4,3.4,0,0,0,.77-.34c.34-.227.021-.407.021-.407s-4.237-2.221-4.554-2.493a.37.37,0,0,0-.544,0Zm-45.046-1.926c-.7-.385-.2-.567-.2-.567L115,83.014c.181-.158.34.069.34.069l3.218,1.881s4.349-2.311,4.645-2.492a.282.282,0,0,1,.34.045l3.672,2.039,3.693-2.311c.407-.34.52-.114.52-.114l4.328,2.538c.362.227.2.294.2.294V96.7a2.623,2.623,0,0,0,1.383,2.017c.34.271.181.476.181.476l-3.332,2.378a4.346,4.346,0,0,1-3.148-3.308V87.047a.586.586,0,0,0-.34-.476l-2.224-1.133.017,4.985h2.389L128.5,93.851l.015,4.126,1.662,1.125c.226.271-.135.317-.135.317l-3.446,2.152-5.12-2.719c-.476-.319-.114-.5-.114-.5l1.11-.7v-3.6h-2.438l.009,4.625.821.519a.276.276,0,0,1-.045.452l-3.422,1.926-4.463-2.357c-.385-.25.021-.452.021-.452l1.27-.725V87.659l-2.447-1.767-.115-.046Zm16.5-.548c-.676-.21-.571.209-.571.209l.045,4.554v.363h.544l-.019-5.126Zm.03,8.751h-.556v3.332c.021.091.294.2.294.2l.273.186-.012-3.721Zm-8.161-.644,2.008-2.981h.431V87.047a1.05,1.05,0,0,0-.317-.362l-2.134-1.11.013,7.829Zm-.319-7.9c-.626.014-.662.436-.662.436l-.047,12.1c0,.067.2.112.2.112l.526.332L119.718,85.5Zm18.227,11.9c-.011-.045.351,3.422,4.793,3.988l2.945-2.378a.23.23,0,0,1,.385-.047l4.985,2.425,3.036-2.378a.518.518,0,0,0-.091-.545l-2.107-1.406V91.285s-.021-.271.159-.317l.816-.657s.135-.227-.135-.521c-.25-.317-5.213-2.764-5.213-2.764s-.181-.271-.635.045c0,0-5.415,2.175-7.545,4.962,0,0-1.7,1.087-1.394,5.37Zm4.249-1.858a5.031,5.031,0,0,1-.407-3.354,3.064,3.064,0,0,1,1.993-2.492l2.606,1.7L146.34,98.1s-.34.568-1.179.182a7.346,7.346,0,0,1-2.968-2.742Zm20.932-11.126s4.961-1.608,5.619-1.767c.633-.158.611.158.611.158s-.135,14.343-.023,14.842.34.385.34.385,1.156.816,1.406.928a.272.272,0,0,1,.135.385l-2.809,2.176s-4.577-2.017-4.939-2.266c-.454-.294-.159-.5-.159-.5l.816-.794s.135-11.8-.091-12.417a1.6,1.6,0,0,0-.951-.838C162.922,84.441,163.126,84.419,163.126,84.419ZM157.529,87a.528.528,0,0,0,.566.317,5.069,5.069,0,0,0,2.539-2.47c.452-1.677-.613-2.13-.613-2.13a1.544,1.544,0,0,0-1.653-.114,2.993,2.993,0,0,0-1.382,1.722A3.874,3.874,0,0,0,157.529,87Z" transform="translate(-8.504 -82.057)" fill="#fff" fill-rule="evenodd"/>
    <path id="Path_54357" data-name="Path 54357" d="M93.849,90.1l.318-.158v.227l.113-.113.135.317-.181.023.114.113c.249.181.091.34.091.34l-.114.091c-.363.135-.249-.431-.249-.431l-.114.113-.135-.34h.181l-.159-.181Z" transform="translate(-14.817 -82.64)" fill="#fff" fill-rule="evenodd"/>
    <path id="Path_54358" data-name="Path 54358" d="M92.843,91.579a.285.285,0,0,1,.294.227c.022-.385.317-.045.317-.045a.565.565,0,0,0-.249.158c0,.227.34.227.34.227.294-.159.249-.34.249-.34.045-.25-.249-.114-.249-.114l-.114-.249.181-.022V91.33l-.158-.091.5-.249-.069.2.045.045.113-.136.091.363c-.227-.045-.136.158-.136.158.129.139.232.152.307.122a.315.315,0,0,0,.146-.145c.136-.158-.022-.227-.022-.227-.181.068-.2.136-.2.136-.091-.476.158-.386.158-.386a.449.449,0,0,1,0-.34.378.378,0,0,1,.2.271c.271-.294.317.022.317.022-.362.069-.2.272-.2.272.085.134.152.156.2.122.115-.075.157-.419.157-.419a.931.931,0,0,0-.725-.318l-.022.184-.272.045L94,90.829l-.068-.022v-.114a1.32,1.32,0,0,1,1.246.294l.022.907a6.647,6.647,0,0,0-2.175.929l-.476-.816a1.823,1.823,0,0,1,.77-1.02l.091.091-.114.136.045.158-.271.227-.227-.114a.8.8,0,0,0-.158.521l.158.34c.318.136.2-.249.2-.249-.091-.114-.2.135-.2.135-.2-.385.069-.363.069-.363A.331.331,0,0,1,92.843,91.579Zm-7.364,8.293a4.02,4.02,0,0,0-.136,1.767h-.181v-1.246c-.521-.114-.294-.317-.294-.317A.684.684,0,0,1,85.479,99.872Zm1,2.288a.786.786,0,0,1,.091.431.209.209,0,0,0-.227-.159C86.25,102.161,86.476,102.161,86.476,102.161Zm.431,0a.282.282,0,0,0,.114-.226c.25.112.091.476.091.476A.479.479,0,0,0,86.906,102.161Zm-.294-.883a.382.382,0,0,1,.454.271c.158.159.158-.069.158-.069-.2-.635-.612-.2-.612-.2Zm.5.431a.117.117,0,0,0,.158-.045.381.381,0,0,1-.023.362c-.022-.181-.135-.181-.135-.181v-.136Z" transform="translate(-14.151 -82.691)" fill="#fff" fill-rule="evenodd"/>
    <path id="Path_54359" data-name="Path 54359" d="M87.517,102.024c-.227-.837-.816-.271-.816-.271a1.282,1.282,0,0,1,.069-.93,4.149,4.149,0,0,0,.793,0c.113,0,.068.069.068.069.091.407-.158.407-.158.407.181.159.227.091.227.091.363.045.68-.678.68-.678a1.433,1.433,0,0,1,.748.271c.227.2,0,.271,0,.271a2.949,2.949,0,0,0-.884.045c-.068.045-.045.182-.045.182a3.851,3.851,0,0,1,.069.588A3.449,3.449,0,0,0,87.517,102.024Zm1.5-2.493c.091-.34.77-.7.77-.7a7.109,7.109,0,0,1,.838-.25,1.471,1.471,0,0,1,1,.657l-.227.181.091.069a.3.3,0,0,1,.431.023,7.476,7.476,0,0,0,.7.294c-.227.338-.929.2-.929.2.022.364-.385.611-.385.611a4.73,4.73,0,0,0,1.314.432c.385-.544.793-.159.793-.159a2.239,2.239,0,0,1,.2.181c-.227.114-.159.408-.159.408a14.26,14.26,0,0,1-1.721.091,6.8,6.8,0,0,1-1.881-.5.1.1,0,0,1-.044-.159l-.023-.135c-.022-.159.114-.135.114-.135a1.615,1.615,0,0,0,.838-.566c.114-.271-.136-.226-.136-.226a7.11,7.11,0,0,1-1.586-.318Z" transform="translate(-14.286 -83.279)" fill="#fff" fill-rule="evenodd"/>
    <path id="Path_54360" data-name="Path 54360" d="M93.558,100.28a.506.506,0,0,1,.7-.135.88.88,0,0,1,.181.271.232.232,0,0,0-.227.159C94.056,100.256,93.558,100.28,93.558,100.28Zm.544.792a.208.208,0,0,1,.114-.248.883.883,0,0,1,.181.226,1.8,1.8,0,0,1-.294.022Zm.158-.383a.437.437,0,0,1,.227.338l.158-.021a.633.633,0,0,0-.136-.52A.286.286,0,0,0,94.26,100.688Zm.227-.613c.114.069.091.294.091.294a.618.618,0,0,1,.2.34.542.542,0,0,1,.294-.045C94.985,100.03,94.487,100.075,94.487,100.075Zm.34.725.022.181.249-.021a.315.315,0,0,0-.045-.226.271.271,0,0,0-.226.067Zm1.586-4.894a1.705,1.705,0,0,1,0,.5c-.069.135-.249.407-.249.407l.317.319.771.021a2.9,2.9,0,0,1,.543-.725A3.37,3.37,0,0,1,98.836,94.5v-.113a.279.279,0,0,1-.2-.227.435.435,0,0,1,.181-.362c.091.091.091-.069.091-.069a.178.178,0,0,0-.114-.045l-.045.091-.2.317a8.573,8.573,0,0,1-.658,1.156c-.181.181-.77.838-.77.838l-.091-.045A1.832,1.832,0,0,1,96.413,95.907Zm1.315,3.829.157-.271.114.023a1.133,1.133,0,0,0,.25.543l-.023.454a.257.257,0,0,0-.226-.159.508.508,0,0,0-.272-.589Zm-1.021,2.107h-.158l-.385.431c-.023.25-.34.364-.34.364.612-.045.7-.271.7-.271a1.5,1.5,0,0,1-.136.338c.384-.2.294-.293.294-.293.069-.228.045-.25.045-.25a.318.318,0,0,1,.044-.135c.047-.183-.068-.183-.068-.183Zm.272.182a1.207,1.207,0,0,0,.385.021c.319.294-.021.725-.021.725-.091-.2-.045-.294-.045-.294a.317.317,0,0,0-.045-.25.669.669,0,0,0-.047.5.61.61,0,0,1-.338-.385.548.548,0,0,1,.112-.316ZM99.516,99.4l.2-.157a.528.528,0,0,1-.067.452A.9.9,0,0,0,99.516,99.4Zm-.317.294a1.616,1.616,0,0,0,.159-.2.667.667,0,0,1,.067.476c-.112-.069-.067-.023-.067-.023Z" transform="translate(-14.797 -82.917)" fill="#fff" fill-rule="evenodd"/>
    <path id="Path_54361" data-name="Path 54361" d="M99.535,97.59v.77c.658-.069.59.431.59.431.271.091.091.566.091.566a.859.859,0,0,1-.021.59,2.313,2.313,0,0,0,1.358,1.087l-.045-3.467ZM99.4,96.23l.023.454a3.4,3.4,0,0,0-.159,1.812.243.243,0,0,0-.181.135A3.36,3.36,0,0,1,99.4,96.23Zm1.45,4.578-.023,1.7.725.588.613-.543v-1.541l-.25.021v1.315l-.363.407-.407-.294v-1.448Z" transform="translate(-15.201 -83.105)" fill="#fff" fill-rule="evenodd"/>
    <path id="Path_54362" data-name="Path 54362" d="M101.466,101.046c.067,0,.114-.045.114-.135s-.047-.157-.114-.157c-.045,0-.091.067-.091.157S101.421,101.046,101.466,101.046Zm.2.364c.045,0,.091-.069.091-.135,0-.091-.045-.159-.091-.159-.069,0-.114.069-.114.159A.127.127,0,0,0,101.67,101.41Zm-.182.271c.045,0,.093-.067.093-.135s-.047-.135-.093-.135a.138.138,0,0,0,0,.27Zm-.181-.3c.069,0,.114-.067.114-.157a.115.115,0,1,0-.226,0C101.2,101.319,101.24,101.386,101.307,101.386Zm-1.948-1.833c-.023-.182.067-.2.067-.2a.931.931,0,0,0,.273.362v-.021a1.035,1.035,0,0,0,.271.317.132.132,0,0,1-.135.159A2.2,2.2,0,0,1,99.359,99.552Zm.452.135a.32.32,0,0,0,.091-.25c.069.114.114.114.114.114l.069-.045.135.2a.4.4,0,0,0-.25.2A.329.329,0,0,1,99.811,99.688Zm-.837.2.157.228a.317.317,0,0,1,.045-.159l.182-.181-.091-.159-.182.2a1.064,1.064,0,0,0-.112.067Zm-.249-.407.135.181c.023-.091.069-.112.069-.112l.226-.2-.135-.091Zm-.567-2.516v.25l.067-.022.341-.023-.407.475.271.182h.385v-.182h-.407l.407-.452v-.2l-.069.022h-.521l-.067-.045ZM98.2,96.4l-.023.226.044-.045.521.069.069.091.045-.271h-.091l-.475-.069-.091-.068Zm.407-1.223.159.113-.114.045c-.181.158-.067.249-.067.249.112.069.135-.068.135-.068.181-.249.317-.114.317-.114a.3.3,0,0,1,.069.408l-.069.091-.021.068-.181-.068.091-.068A.188.188,0,0,0,99,95.656c-.045-.2-.157,0-.157,0-.273.271-.408-.023-.408-.023C98.315,95.427,98.61,95.179,98.61,95.179Zm.658-.748v.181a.184.184,0,0,0-.25.2c.067.317.294.271.294.271v.136a.4.4,0,0,1-.431-.25A.411.411,0,0,1,99.268,94.431Zm.2,2.492h1.971v-2.9L99.381,94Zm-.157-5.777a4.01,4.01,0,0,1,1.834-.907v.453A4.506,4.506,0,0,0,99.314,91.145Zm2.447-.883v.407a2.976,2.976,0,0,1,2.062.567A2.742,2.742,0,0,0,101.761,90.262Zm-.5-.023v.454h.385v-.454Zm-2.516,1.2c-.135-.634.34-.385.34-.385Zm.5-.5c-.045-.657.385-.294.385-.294Zm.611-.431c-.021-.657.408-.271.408-.271Zm.59-.317c.091-.861.454-.181.454-.181Zm.7-.432h.613c.091.136-.091.34-.091.34a.625.625,0,0,1-.408-.022C100.945,90.013,101.148,89.763,101.148,89.763Zm.023-1.02h.59l-.181.272.112.114.135-.182.023.567-.294-.226.136.34-.521-.023.226-.272-.067-.068-.228.2-.022-.544.227.2.069-.069-.2-.318Zm2.537,2.017.34.318C104.163,90.375,103.709,90.76,103.709,90.76Zm-.181-.136-.408-.227C103.595,89.922,103.528,90.624,103.528,90.624Zm-1-.566.407.181C102.938,89.537,102.532,90.058,102.532,90.058Zm-.159-.023c-.045-.318-.226-.318-.226-.318-.2-.045-.228.294-.228.294ZM99.359,93.5a11.215,11.215,0,0,1,4.124,0c.271.045.159.249.159.249a.418.418,0,0,1-.294.022,12.554,12.554,0,0,0-3.921.069c-.34.022-.271-.136-.271-.136C99.224,93.456,99.359,93.5,99.359,93.5Zm2.2.521v2.923h1.881l.068-2.923Zm1.881,3.013h-1.881l.023,3.467a1.748,1.748,0,0,0,1.336-.816c.045-.319.52-1.632.52-1.632v-1.02Zm-1.179,3.377v.34a3.563,3.563,0,0,0,.907.407.172.172,0,0,0,.114-.25.575.575,0,0,0-.226-.112A1.585,1.585,0,0,1,102.258,100.414Zm.7-.658.112.114-.407.59-.069-.159Zm.2.182-.383.543c.588.385.928-.52.928-.52A.781.781,0,0,1,103.164,99.938Zm.387-4.442v.544a3.5,3.5,0,0,1,.248,1.133l.182-.317A2.67,2.67,0,0,0,103.551,95.5Zm-1.315,6.276v.25a2.042,2.042,0,0,0,.657.271c.114-.045,0-.2,0-.2A1.435,1.435,0,0,1,102.236,101.771Z" transform="translate(-15.138 -82.551)" fill="#fff" fill-rule="evenodd"/>
    <path id="Path_54363" data-name="Path 54363" d="M103.369,102.55l.114-.407c.385-.023.25-.454.25-.454.317-.091.678-.68.678-.68l.093.228.135.271c.067.135.112.2.091.2l-.2.181v-.114l-.385.34.135-.747-.362.837a1.439,1.439,0,0,1-.544.34Zm.069.2c.317.476,1.36.476,1.36.476a.8.8,0,0,0-.408-.385.879.879,0,0,1,.861.226.844.844,0,0,0,.52.228,1.311,1.311,0,0,0-.226-.25.39.39,0,0,0,.271.021,1.921,1.921,0,0,0-.611-.52c.476-.25.884.319.884.319a.97.97,0,0,0,.385.362l-.137-.454c.137.408.68.522.68.522.069-.069,0-.2,0-.2-.157,0-.294-.226-.294-.226l-.021-.454c-.5-.069-.5-.34-.5-.34a.527.527,0,0,1,.431-.452l-.045-.522c.294-.271.861-.112.861-.112-.045-.319-.294-.228-.294-.228,0-.248-.293-.271-.293-.271v.069l-.818.635c.114.633-.181.837-.181.837a.731.731,0,0,1-.973-.135l-.319.2a.784.784,0,0,1,.5.294l-.045.045a1.287,1.287,0,0,0-.5-.25l-.271.112-.135.114-.682.339Z" transform="translate(-15.523 -83.42)" fill="#fff" fill-rule="evenodd"/>
    <path id="Path_54364" data-name="Path 54364" d="M104.945,99.693a3.01,3.01,0,0,0,.362-.953l.093.114-.135.431.091.091.157-.362.114.135-.181.294.135.112.181-.248.114.091-.25.25.112.157.2-.317.159.114-.271.271.112.091.273-.226.091.067-.658.544a1.293,1.293,0,0,0-.7-.657Zm2.334.543c.568-.135.093-.431.093-.431-.5-.181-.568-.091-.568-.091.182.069.159.181.159.181C107.212,99.919,107.278,100.236,107.278,100.236Zm.023.544.2-.5a.851.851,0,0,1-.52.045.748.748,0,0,0-.478.045c-.2.114-.044.137-.044.137a1.545,1.545,0,0,0,.837.271Zm.657-.069.114.138.544-.182-.319.228.59.045-.271-.409-.658.181ZM106.327,90.7a.9.9,0,0,0-.271-.589c-.25-.158-.271-.022-.271-.022a.291.291,0,0,0,.157.271l.385.34Zm.52.317a.92.92,0,0,0-.067-.271,2.588,2.588,0,0,0-.159-.249l-.294-.2a1.365,1.365,0,0,1,.114.407l.407.317Zm.023-.362a.706.706,0,0,1,.114.407l.362.363a1,1,0,0,0-.181-.589l-.294-.227v.045Zm-.7,2.515a.334.334,0,0,1-.273.045c0,.227.408.227.408.227a.462.462,0,0,0,.294-.158V93.19a.8.8,0,0,1-.294.114l-.135-.137Zm.5,1.563.045-.158c.431-.114.114-.431.114-.431.159-.068.2-.022.2-.022.2-.114.271.135.271.135.159-.135.271-.045.271-.045-.34.318.069.431.069.431a.263.263,0,0,0,.25-.2.485.485,0,0,1-.114-.158.553.553,0,0,1,.181.113.111.111,0,0,1,.114-.136.3.3,0,0,1,.045.2c.069-.068.2,0,.2,0-.2.227.067.431.067.431.319.181.273-.34.273-.34a.182.182,0,0,1,.2.2l.137-.113a.794.794,0,0,1,.045.227.17.17,0,0,1,.226-.022c-.364.226-.114.431-.114.431a.166.166,0,0,0,.2.022l-.021-.158.293.045-.293.34a5.093,5.093,0,0,0-2.676-.794Zm.7-3.784.293.181a.806.806,0,0,1-.181.362A1.234,1.234,0,0,0,107.371,90.946Zm1.4.181c.613-.158,1.02.657,1.02.657l-.452-.181A4.327,4.327,0,0,0,108.774,91.127Zm.613.611a1.517,1.517,0,0,1,.2.476,3.6,3.6,0,0,0,.613.454,1.165,1.165,0,0,0-.816-.93Zm.294.748a.916.916,0,0,1,.544,1.133.7.7,0,0,0-.317-.385A1.273,1.273,0,0,1,109.68,92.487Zm.137.883a2.063,2.063,0,0,1-.045.5,2.512,2.512,0,0,1,.2.544,2.5,2.5,0,0,0,.2-.634A.81.81,0,0,0,109.818,93.37Zm-.091.725a3.127,3.127,0,0,1-.319.7l.114.136.135.091a.773.773,0,0,0,.069-.929Zm4.667,7.365-.2-.77a.289.289,0,0,0-.408-.091.511.511,0,0,1-.454.067c-.271-.045-.045-.226-.045-.226a3.6,3.6,0,0,1,.725-.34,2.3,2.3,0,0,0,.77.091c.431-.067.34.294.34.294a4.824,4.824,0,0,1-.091.93,6.256,6.256,0,0,0-.634.045Zm.725.159.114.112-.34.611-.159-.091A1.727,1.727,0,0,0,115.119,101.619Zm.2.157-.271.59a1.073,1.073,0,0,0,.861-.25l-.069-.362a.8.8,0,0,1-.521.022Zm1.02-.25a2.961,2.961,0,0,1,.34.114,1.805,1.805,0,0,0-.114-.907c.385.135.385-.023.385-.023.114-.317-.271-.407-.271-.407a2.172,2.172,0,0,0-.884-.159.741.741,0,0,1,.023.294.991.991,0,0,1,.021.226A.752.752,0,0,1,116.343,101.527ZM103.654,94.5v.181l.226-.158-.226.521-.022.318.362-.771-.114-.2-.226.114Zm.069.974h.091l.475-.363.045-.091.112.25h-.067l-.431.34.067.181.115.113-.159.068-.248-.5Zm.407,1,.069.271.112-.069.182-.067.157.112h.226l-.271-.181.2-.226-.091-.271-.045.112-.2.273-.271.068Zm.363,1.608c-.114.023-.069.091-.069.091.226.294.362.045.362.045a.35.35,0,0,0,.045-.226l-.067-.021c0,.271-.135.2-.135.2A.172.172,0,0,1,104.493,98.084Zm-.249.43-.045.3.09.159.045-.273.226.114-.114.226-.067.023.159.091.157-.364.069-.09H104.7l-.452-.226Zm-4.464,2.493a.19.19,0,0,1-.2.159l-.25-.294c-.159-.25-.021-.317-.021-.317l.317-.454a.417.417,0,0,1,.159.181l-.228.294c-.067.159.045.2.045.2Z" transform="translate(-15.218 -82.647)" fill="#fff" fill-rule="evenodd"/>
    <path id="Path_54365" data-name="Path 54365" d="M99.293,100.1c.091.385-.294.294-.294.294-.135.271.069.271.069.271a.447.447,0,0,0,.431-.294.305.305,0,0,0-.2-.271ZM106,93.821l-.271-.249a.478.478,0,0,0,.181-.407s.159-.022-.157-.022l-.114.068s-.114-.045-.135-.114l-.045-.271.2-.249.181.022a6.144,6.144,0,0,1,.769-.739l.093.1c-.114.249.021.317.021.317.181.114.25-.113.25-.113.181.091.114-.022.114-.022a1,1,0,0,1-.423-.331c.233-.2.423-.349.423-.349a.873.873,0,0,1,.294-.363,1.7,1.7,0,0,1-.2-.5.688.688,0,0,1,.657.589c1.746,1.383.658,3.558.658,3.558a5.333,5.333,0,0,0-1.7-.7,1.449,1.449,0,0,1,.543-.521c.749.023.635-.883.635-.883-.157-.318-.112.158-.112.158-.319,1.042-1.134.114-1.134.114-.091-.069,0,.158,0,.158.045.113.091.091.091.091l.069.068-.566.227c-.091.136-.25.363-.25.363H106Zm-10.535-1.79a5.432,5.432,0,0,0-2.107.929c-.136.091-.158.068-.158.068-.227.407.249.589.249.589A1.66,1.66,0,0,0,93.63,94.7a2.092,2.092,0,0,1,.249.884.649.649,0,0,0,.2-.363,1.209,1.209,0,0,0,.77.929.549.549,0,0,1,.363.271,1.325,1.325,0,0,0,.045-.452.78.78,0,0,0,.34.452,3.333,3.333,0,0,1,.136-.52,1.213,1.213,0,0,0,.045-.86.5.5,0,0,0,.294.2,1.178,1.178,0,0,1,0-.748,1.08,1.08,0,0,0-.091-.68l-.044-.164a2.074,2.074,0,0,0-.048.731,1.484,1.484,0,0,1-.227-.068,1.922,1.922,0,0,1-.2.951,1.172,1.172,0,0,0-.181.431,2.037,2.037,0,0,0-.838-.453,2.819,2.819,0,0,1-.271-.407c-.091.158-.181.114-.181.114a2,2,0,0,0-.271-.5,1.194,1.194,0,0,1-.158-.544,4.749,4.749,0,0,0,.272.476c.158.092.158.407.158.407a.321.321,0,0,0,.158-.226,1.293,1.293,0,0,0,.748.612,1.524,1.524,0,0,1,.34.249.916.916,0,0,1,.158-.52A1.16,1.16,0,0,0,95.51,94a.438.438,0,0,0,.318.249,1.25,1.25,0,0,1-.022-.385,2.868,2.868,0,0,0,.061-.511l-.061-.237a1.78,1.78,0,0,1-.158-.5A.4.4,0,0,0,95.464,92.031Zm-.929,2.016a1.024,1.024,0,0,0,.431.34.926.926,0,0,0,.091-.52.436.436,0,0,1-.294-.045c-.069.249-.227.226-.227.226Zm-.884-1c.318.091.431-.045.431-.045a.265.265,0,0,1,.385.227.57.57,0,0,0,.069.271.506.506,0,0,0,.34-.091c.091-.114-.045-.227-.045-.227a1.591,1.591,0,0,0-.091-.249c0-.363.25-.34.25-.34a.323.323,0,0,0,.271-.136.406.406,0,0,1-.249.431.231.231,0,0,0-.114.25c.158.271.022.294.022.294a.255.255,0,0,1-.176.15.239.239,0,0,0,.244.168.491.491,0,0,0,.249-.407c.113.317,0,.407,0,.407a.2.2,0,0,1-.069.294.775.775,0,0,1-.2.567c-.77-.453-.793-.974-.793-.974.249.431.5.227.5.227.049-.05.039-.194.03-.27a.641.641,0,0,1-.211,0,.45.45,0,0,1-.113-.317c-.114-.25-.181-.045-.181-.045a.341.341,0,0,1-.544-.183Zm-5.234,7.793a9.717,9.717,0,0,0,2.969.385,14.709,14.709,0,0,0,3.467-.293,2.41,2.41,0,0,0,.725-.2c.091-.023.044.159.044.159a2.534,2.534,0,0,0-.022,1.042c0,.362-.385.34-.385.34a29.62,29.62,0,0,1-5.914.226c-.77-.135-.794-.544-.794-.544a1.227,1.227,0,0,0-.068-1C88.349,100.891,88.417,100.844,88.417,100.844Zm.725,1.338.069-.069v-.657l-.045-.114c.5-.021.657.181.657.181a.425.425,0,0,1-.25.7.739.739,0,0,1-.43-.045Zm1.133-.748.34.023c-.091.045-.068.181-.068.181l-.022.611.091.135-.363-.021c.091-.069.091-.114.091-.114v-.657a.251.251,0,0,0-.069-.158Zm-.838.023-.022.635a.257.257,0,0,0,.294-.182.381.381,0,0,0-.045-.271A.281.281,0,0,0,89.437,101.457Zm1.541.045h.657l.022.159a.505.505,0,0,0-.2-.047h-.136v.25h.069l.158-.045-.022.2L91.408,102h-.091v.273h.158a.248.248,0,0,0,.158-.069v.181l-.5-.021H91c-.022-.023,0-.023,0-.023a.158.158,0,0,0,.091-.045v-.7c-.022-.046-.113-.092-.113-.092Zm1.02-.023.34.023a.377.377,0,0,0-.045.112v.454c.022.181.158.159.158.159.158-.023.136-.228.136-.228v-.452l-.045-.045h.249a.108.108,0,0,0-.022.067v.476a.365.365,0,0,1-.34.319.344.344,0,0,1-.34-.34v-.454A.311.311,0,0,0,92,101.479Zm1.654-.091.544-.045.068.159a.583.583,0,0,0-.158-.023h-.135v.228H94.1a.3.3,0,0,1,.069-.045l.022.2a.141.141,0,0,0-.091-.045h-.135v.25h.158c.045,0,.114-.069.114-.069v.159l-.521.069.045-.045-.022-.725c0-.046-.092-.069-.092-.069Zm.975-.091.022.181c.045-.091.2-.091.2-.091l.022.657-.045.047.271-.047-.045-.021-.022-.657a.2.2,0,0,1,.2.021l-.022-.181-.023.021-.52.047h-.045v.022h0Zm1.313-.725a.536.536,0,0,1-.045-.5.5.5,0,0,1,.521-.364c.226.135.2-.045.2-.045a.355.355,0,0,1,.5-.135.515.515,0,0,0,.294.181c.159.2.069.317.069.317a.278.278,0,0,0,.045.2.25.25,0,0,1,.181.273,1.6,1.6,0,0,1-.114.657.264.264,0,0,1-.293.021c-.114.023-.069.069-.069.069.114.181,0,.271,0,.271a.551.551,0,0,1-.431.182c-.362,0-.385-.182-.385-.182-.045-.157-.249-.157-.249-.157a.459.459,0,0,1-.318-.385.227.227,0,0,1,.091-.228c.114-.067,0-.181,0-.181Zm.612.2a.419.419,0,0,1-.112.476c-.182.023-.2-.114-.2-.114a.151.151,0,0,0-.114-.157c-.068-.273.069-.273.069-.273A.369.369,0,0,1,96.551,100.777Zm.431-.136c.045.226.364.407.364.407.157,0,.091-.226.091-.226-.091-.114-.045-.181-.045-.181.226-.045.067-.25.067-.25-.431-.113-.476.25-.476.25Zm-.317-.363c0-.431-.273-.407-.273-.407a.16.16,0,0,0-.135.157c.045.228-.045.228-.045.228-.2.045-.068.271-.068.271.068.091.113.069.113.069a.69.69,0,0,0,.363-.114c.112-.022.045-.2.045-.2Zm.3-.476a.175.175,0,0,0,.181.114c.25,0,.091.25.091.25a.511.511,0,0,1-.317.2c-.25-.293-.228-.452-.228-.452,0-.364.273-.115.273-.115Zm-.159,1.089a.378.378,0,0,1,.317.407c-.091.159-.181.091-.181.091-.114-.112-.181-.021-.181-.021,0,.2-.159.067-.159.067-.092-.476.2-.543.2-.543Z" transform="translate(-14.415 -82.689)" fill="#fff" fill-rule="evenodd"/>
    <path id="Path_54366" data-name="Path 54366" d="M97.609,101.826a.439.439,0,0,0,.34-.408.334.334,0,0,0,.078-.036.71.71,0,0,1,.307.355,1,1,0,0,1,.228.271c-.023-.294-.159-.364-.159-.364a.989.989,0,0,0-.243-.378,1,1,0,0,0,.174-.55c.25-.091.476.226.476.226a.287.287,0,0,1-.181.023c.364.157.294.725.294.725a.322.322,0,0,1-.226-.069c.271.317,0,.93,0,.93a.586.586,0,0,1-.319-.431c.045.226-.045.293-.045.293-.226-.045-.317-.34-.317-.34-.023.273-.159.159-.159.159-.067-.045-.067-.2-.067-.2-.113-.02-.182-.2-.182-.2Zm2.833-.249a1.573,1.573,0,0,1-.273-.089,2.569,2.569,0,0,1-.383.723,7.169,7.169,0,0,0,.319-.752,2.25,2.25,0,0,1-.544-.358c-.023.34-.385.157-.385.157a.275.275,0,0,0,.157.432.624.624,0,0,0,.408-.182c.317-.067.091.182.091.182a.846.846,0,0,1-.362.157.243.243,0,0,0-.159.385c.181.25.362.159.362.159.159.021.159.135.159.135.114.271.294.114.294.114a.415.415,0,0,0,.091-.454c-.114-.294-.045-.407-.045-.407-.069-.408.114-.114.114-.114a1.166,1.166,0,0,1,.091.25c.067.157.091.045.091.045Zm-3.534-1.95.135-.248a.619.619,0,0,0-.294-.431.279.279,0,0,0,0,.2,1.3,1.3,0,0,0-.544-.34.8.8,0,0,0,0,.34.812.812,0,0,0-.635-.407.5.5,0,0,0,.091.294,1.026,1.026,0,0,0-.612-.114,1.236,1.236,0,0,0,.408.68l-.045.114c-.249-.182-.317-.045-.317-.045-.022.021,0,.067,0,.067a1.692,1.692,0,0,0,.634.431.3.3,0,0,0-.181.159c.181.362.725.34.725.34a1.282,1.282,0,0,1,.014-.754,3.849,3.849,0,0,1-.467-.334,2.543,2.543,0,0,0-.271-.271l-.318-.25a1.908,1.908,0,0,1,.431.228,4.9,4.9,0,0,0,.7.5.675.675,0,0,1,.546-.158Zm9.245,1.18a4.46,4.46,0,0,1,.044,1.315c2.539.973,6.889.383,6.889.383.725-.091.749-.2.749-.2.271-.023.226-.431.226-.431a3.393,3.393,0,0,1-.25-1.02,18.737,18.737,0,0,1-3.919.431A8.454,8.454,0,0,1,106.154,100.806Zm.317.34.25.045.135.5.271-.385.226.021-.021.069v.725l.045.091-.317-.045.045-.069v-.385l-.294.385-.2-.476v.431l-.181-.091.021-.045.023-.658v-.111Zm1.2.34a.539.539,0,0,0,0,.77.444.444,0,0,0,.52,0,.54.54,0,0,0-.023-.77C107.829,101.305,107.671,101.486,107.671,101.486Zm.249.022c-.385.182-.114.59-.114.59.091.2.226.045.226.045.182-.181.045-.476.045-.476-.045-.2-.157-.159-.157-.159Zm.588-.045h.182l.294.408-.023-.319-.023-.067.294.021-.045.069v.77l.023.067h-.159l-.317-.476v.319l.021.091-.226-.023.021-.112.023-.658Zm1.429.045h.317c.34,0,.408.454.408.454a.451.451,0,0,1-.478.476l-.248-.023.091-.067-.023-.77-.067-.069Zm.271.114v.725a.4.4,0,0,0,.226-.454C110.368,101.622,110.209,101.622,110.209,101.622Zm.611-.114.135-.021a.632.632,0,0,1,.408-.023.33.33,0,0,1-.023.476l.2.319a.15.15,0,0,1,.091.067.2.2,0,0,1-.181,0,.6.6,0,0,1-.25-.317h-.112v.34l.021.067h-.226l.021-.067-.021-.794-.069-.046Zm.273.408v-.364a.1.1,0,0,1,.157.023.232.232,0,0,1,0,.294c-.045.068-.157.046-.157.046Zm1-.566c.431-.023.431.543.431.543a.468.468,0,0,1-.454.454c-.385-.045-.407-.52-.407-.52.067-.521.43-.476.43-.476Zm0,.135c.226.021.2.362.2.362a.342.342,0,0,1-.2.385c-.114.023-.159-.135-.159-.135-.135-.431.045-.566.045-.566C112,101.486,112.089,101.486,112.089,101.486Zm.566-.159.317-.021-.045.091.023.792.045.045-.271.023.021-.045-.021-.816Zm.544-.069.021.228.069-.069.114-.021v.725l-.023.067.226-.045-.021-.069v-.747h.157l-.021-.181-.045.021-.408.091Zm-9.267-1.018a1.222,1.222,0,0,0,.027.163l.031-.017c.072-.2.032-.282.032-.282l.067-.047a.57.57,0,0,1-.023.3.471.471,0,0,1,.19-.019,1.037,1.037,0,0,0,.038-.324l-.326-.04A.389.389,0,0,0,103.933,100.24Zm.056.266a1.059,1.059,0,0,0,.243.41c.1-.08.081-.385.069-.5a.43.43,0,0,0-.311.089Zm.294.461a1.209,1.209,0,0,0,.307.2.778.778,0,0,0,.051-.369,1.129,1.129,0,0,0-.32.061A.73.73,0,0,1,104.282,100.967Zm.382.235a.83.83,0,0,0,.106.034.66.66,0,0,0,.2,0l-.017-.207a.641.641,0,0,0-.26.094Zm.38.016a.34.34,0,0,0,.219-.266.4.4,0,0,0-.215-.019Zm.226-.357a1.015,1.015,0,0,0-.241-.673.934.934,0,0,1,.038.408l.112-.042.021.069-.157.019a.759.759,0,0,1-.006.222.33.33,0,0,1,.232,0Zm-.3-.732a1.052,1.052,0,0,0-.288-.186.475.475,0,0,1,.067.279A.466.466,0,0,1,104.971,100.129Zm-.419-.236a1.3,1.3,0,0,0-.324-.061.365.365,0,0,0-.215.089l.332.023Zm-.2.13a.2.2,0,1,0,.326.23.534.534,0,0,0-.067-.281Zm.412.309a.481.481,0,0,1-.013.311.348.348,0,0,1,.244-.04.633.633,0,0,0-.047-.347.27.27,0,0,0-.184.076Zm-.044.406a.618.618,0,0,1-.007.311.343.343,0,0,1,.251-.131.522.522,0,0,0,.032-.23A.843.843,0,0,0,104.725,100.737Zm-.034-.366a.5.5,0,0,0-.344.023,1.206,1.206,0,0,1-.006.376.564.564,0,0,1,.326-.061.618.618,0,0,0,.023-.338Zm-5.607-6.863L98.7,92.286l.2-.544.228.883-.2-.091a.45.45,0,0,0,.725.34c.25-.271.021-.362.021-.362-.293-.159-.34.022-.34.022-.2-.77.319-.476.319-.476-.023-.5.181-.544.181-.544.271.091.271.521.271.521.294-.476.478.022.478.022a.463.463,0,0,1-.023.2.286.286,0,0,0-.407.25c-.047.249.407.317.407.317a.8.8,0,0,0,.545-.748,1.273,1.273,0,0,0-.431.271v-1.02a1.058,1.058,0,0,0,.476.385,1.33,1.33,0,0,0-.319-.7l.953-.022a1,1,0,0,0-.294.725.621.621,0,0,0,.407-.317l.023.883c-.2-.317-.408-.181-.408-.181a.549.549,0,0,0,.5.7.389.389,0,0,0,.431-.34c-.091-.407-.364-.182-.364-.182-.112-.68.385-.385.385-.385-.181-.453.135-.612.135-.612a.471.471,0,0,1,.2.612c.522-.271.431.385.431.385-.5-.227-.431.294-.431.294.228.544.68.135.68.135a.776.776,0,0,0,.114-.271l-.2.045.2-.7.181.363.135-.385.114.135-.658,1.654a12.514,12.514,0,0,0-4.279-.045Zm3.375-.317c-.112-.022-.226-.069-.2-.114,0-.068.091-.091.226-.068.112.022.226.068.2.113C102.687,93.192,102.594,93.215,102.459,93.192Zm-2.447.022c.114-.022.2-.068.2-.135,0-.045-.114-.068-.226-.045-.135,0-.226.068-.226.113s.112.091.247.068Zm1.246-.453.319.272-.319.2-.293-.2Zm4.261,3.557a2.142,2.142,0,0,1,.2-.679l-.264-.283-.091.163a.255.255,0,0,1-.063.419l-.021.1.236.283Zm-.133-1.039-.66-.7c-.452-.657-.77-.34-.77-.34l-.317.114a1.209,1.209,0,0,1,.385.431c.271-.045.294.091.294.091l.7.849v-.011a.23.23,0,0,1,.2-.249.181.181,0,0,1,.076.017l.085-.2Z" transform="translate(-14.908 -82.718)" fill="#fff" fill-rule="evenodd"/>
    <path id="Path_54367" data-name="Path 54367" d="M105.178,95.5c-.159-.181-.271-.317-.34-.249a6.233,6.233,0,0,1,.362.86,2.963,2.963,0,0,1,.182,1.087l.338.023.089.011-.031-.174a.24.24,0,0,1-.17-.244c0-.159.091-.273.2-.273a.063.063,0,0,1,.019,0l.042-.2c-.056-.067-.114-.139-.174-.213-.091-.114-.2-.228-.294-.341C105.337,95.681,105.245,95.59,105.178,95.5Zm.723,1.744.364.047a.754.754,0,0,1-.045-.522l-.241-.289-.027.123a.293.293,0,0,1,.087.213.257.257,0,0,1-.156.233Z" transform="translate(-15.632 -83.031)" fill="#fff" fill-rule="evenodd"/>
    <path id="Path_54368" data-name="Path 54368" d="M103.467,100.153c.159.226.635.159.635.159.069-.045.045-.317.045-.317a.515.515,0,0,1-.021-.25c.112.021.135.157.135.157a2.363,2.363,0,0,1-.069.273c.5-.319.069-.93.069-.93a1.637,1.637,0,0,1,.271-.792c.52-.454.794-.294.794-.294a5.068,5.068,0,0,1,1.2.25c.293.091,1.336.271,1.336.271a.36.36,0,0,1,.091-.181c.294-.2.5-1.179.5-1.179,0-.157.069-.091.069-.091a.524.524,0,0,1,.023.25,2.456,2.456,0,0,1-.228.951,3.124,3.124,0,0,0,1.474.25,2.383,2.383,0,0,0,1.177-.34,3.243,3.243,0,0,1,1.382-.2L112.327,98c-.566-.25-.181-.545-.181-.545l-.228-.317A12.563,12.563,0,0,1,109.4,96.1a4.223,4.223,0,0,0-2.492-.748,2.883,2.883,0,0,0-.59,1.995l.407.045a1.746,1.746,0,0,1,.5-1.315c.159-.068.045.114.045.114a1.647,1.647,0,0,0-.34,1.427,11.594,11.594,0,0,0-1.746-.181.907.907,0,0,0-.723.112,1.405,1.405,0,0,0-.385.59l-.294,1.02a3.115,3.115,0,0,0-.319.994ZM109.79,97.5a3.931,3.931,0,0,1-.385,1c.045.157.226-.091.226-.091a2.826,2.826,0,0,0,.271-.863C109.857,97.163,109.79,97.5,109.79,97.5Zm-.749-.317a2.836,2.836,0,0,1-.452,1.156c-.069.181.135.045.135.045a3.038,3.038,0,0,0,.385-1.156c-.023-.2-.069-.045-.069-.045Zm.364.2a2.159,2.159,0,0,1-.431,1c-.091.159.112.069.112.069a1.957,1.957,0,0,0,.431-1.089c-.045-.249-.112.024-.112.024Zm2.492.928a1.018,1.018,0,0,1,.5-.042l.049.243a.3.3,0,0,0-.163.277.277.277,0,0,0,.25.293h.021v.353a4.492,4.492,0,0,1-.747.17c-.385.091-.114.317-.114.317a.812.812,0,0,1,.25.34c.181.2-.114.362-.114.362a3.38,3.38,0,0,0-1.292.725,7.786,7.786,0,0,1-1.177-.021,1.343,1.343,0,0,1-.319-.454.325.325,0,0,1,.476.045,1.234,1.234,0,0,0,.59.069c.34-.181.839-.408.839-.408a.342.342,0,0,1,.226-.045c.135-.045-.023-.159-.023-.159a3.1,3.1,0,0,1-.611-.566c-.181-.294,0-.431,0-.431a11.614,11.614,0,0,1,1.359-1.067Zm.639,0a.757.757,0,0,1,.358.294c.135.294.091.364.091.364a.516.516,0,0,0,0,.271,1.827,1.827,0,0,1-.317.154v-.362a.315.315,0,0,0,.112-.244.282.282,0,0,0-.232-.294Z" transform="translate(-15.53 -83.039)" fill="#fff" fill-rule="evenodd"/>
    <path id="Path_54369" data-name="Path 54369" d="M116.078,97.433a2.828,2.828,0,0,0,.023-1c-.159-.34-.319-.408-.319-.408,0-.973-.588-1.109-.588-1.109a1.327,1.327,0,0,0,.112.431c.045.091-.112-.023-.112-.023a.644.644,0,0,0-.319-.476,1.209,1.209,0,0,1-.34-.294c-.25.407.408.839.408.839a15.208,15.208,0,0,0-2.787.317,2.715,2.715,0,0,1-1.949-.135.769.769,0,0,1-.452-1,1.149,1.149,0,0,1,1.087-.612,4.044,4.044,0,0,1,1.089.182,4.686,4.686,0,0,0,2.243-.045,1.539,1.539,0,0,0,.747-.838,1.331,1.331,0,0,1-.816.2,2.8,2.8,0,0,1-1.246.318c.635-.249.613-.5.613-.5a1.078,1.078,0,0,1,.293-.363,2.361,2.361,0,0,0-.837.431,2.2,2.2,0,0,1-.975.2.6.6,0,0,1-.317-.022c.452-.136.476-.318.476-.318a2.583,2.583,0,0,0-1.995.363,1.4,1.4,0,0,0-.633,1.5c.157.725,1.448.951,1.448.951a15.737,15.737,0,0,0,2.63-.135,2.769,2.769,0,0,1,1.382.023c.135.091,0,.112,0,.112-.658-.091-.861.68-.861.68a1.176,1.176,0,0,1,1.065-.362c.112.021,0,.045,0,.045a.719.719,0,0,0-.544.159.909.909,0,0,0,.747.157.469.469,0,0,0,.273-.226.9.9,0,0,1,.135.951,1,1,0,0,1-.454.385,3.382,3.382,0,0,1-1.586-.181,1.905,1.905,0,0,0-.747-.114c-.069-.021-.181-.067-.271-.091a17.733,17.733,0,0,0-1.949-.385l.114.159c.181.045.271.135.294.226a.3.3,0,0,1-.023.181.563.563,0,0,1-.114.181l.093.182a.75.75,0,0,1,.588.861,1.119,1.119,0,0,0,.408.792,2.091,2.091,0,0,0,1.563.566c.273,0,.319.069.319.069.271.159.226.884.226.884a1.825,1.825,0,0,1-.135.611c.091.226.543.114.543.114a.177.177,0,0,0,.093-.114.321.321,0,0,0-.069-.271c-.045-.069,0-.045,0-.045a.506.506,0,0,1,.271.476.622.622,0,0,0-.181-.953c-.091-.021-.159-.045-.159-.045a6.76,6.76,0,0,1-.091-.882V99.88l-.226-.25a1.683,1.683,0,0,1-1.087-.067,2.225,2.225,0,0,0,.021-.294,8.827,8.827,0,0,0-.091-1.406,10.444,10.444,0,0,0,1.224.271,2.154,2.154,0,0,0,.747.093c.59.135.408.543.408.543.476-.385.067-.657.067-.657a.845.845,0,0,0,.522-.68Zm-31.653.226a1.486,1.486,0,0,1,.113-1.087,2.711,2.711,0,0,1,1.4-1.156,1.4,1.4,0,0,1,1.088-.657,1.513,1.513,0,0,1-.25.34,1.949,1.949,0,0,0,.77-.431.822.822,0,0,1-.476.725,20.783,20.783,0,0,0,4.124-.045,1.041,1.041,0,0,0,.929-1.065c-.2-.816-1.223-.34-1.223-.34-2.153,1.246-3.195-.407-3.195-.407a5.64,5.64,0,0,0,1.541.2,3.351,3.351,0,0,1-.883-.725.983.983,0,0,1,.476.181A2.2,2.2,0,0,0,90,93.424c-.181-.2-.476-.544-.476-.544a2.03,2.03,0,0,0,.725.158c.227.022.407.045.407.045a1.319,1.319,0,0,0,.589,0,1.406,1.406,0,0,1,1.292,1.178c.113,1.359-1.45,1.472-1.45,1.472a35.086,35.086,0,0,1-4.147.136.826.826,0,0,1,.454.5,1.3,1.3,0,0,0,.158.273c-.363.021-.725-.454-.725-.454a3.786,3.786,0,0,0,.408.566c-.2.091-.634-.431-.634-.431a.926.926,0,0,0-1.269.023c-.635.5-.521.928-.521.928a.509.509,0,0,0,.158.385.784.784,0,0,0,.634.228,4.165,4.165,0,0,0,1.223-.228,3.678,3.678,0,0,0,.7-.271.917.917,0,0,1,.2.023.9.9,0,0,1,.5-.114,26.74,26.74,0,0,0,3.851-1.134,5.9,5.9,0,0,0,1.088-.906c.249.158.407.748.407.748a.422.422,0,0,0,.158-.2c.136.5.816.77.816.77a.63.63,0,0,1,.363.226l.068-.2a9.835,9.835,0,0,0,1.473,1.065q.716.49,1.45.953c.611-.68,1.042-.273,1.042-.273a.243.243,0,0,1-.2.069.75.75,0,0,0-.52.157c.749-.112.884.137.884.137.157.362-.364.543-.364.543a.449.449,0,0,0-.476-.476.626.626,0,0,1,.34.52c-.159.431-.545.093-.545.093a2.218,2.218,0,0,1-.34-.25,4.855,4.855,0,0,1-2.174-.839l-.567.25a2.435,2.435,0,0,1-.725-.884c-.068-.112-.113-.2-.113-.2v.2a1.733,1.733,0,0,0,.271.59c-.974,1.11-2.719.114-2.719.114-.2-.068-.839-.408-.839-.408a3.116,3.116,0,0,0-2.651,1.609l-.136.226c-.135,1.02-.453,1.02-.453,1.02a.438.438,0,0,0-.226-.566,6.683,6.683,0,0,1-.907.021,1.232,1.232,0,0,0-.069,1.246c.793-.021.453.611.453.611a.277.277,0,0,1-.249.2.542.542,0,0,0-.589-.611c.52.2.407.52.407.52-.135-.023-.271.2-.271.2a1.486,1.486,0,0,1-.657-1.382c.091-1.564.431-1.859.431-1.859.114-.045.158.023.158.023a1.283,1.283,0,0,0,.793.021c.182-.045.227-.407.227-.407a2.69,2.69,0,0,1,.544-1.134c-.294.137-1.948.568-1.948.568a1.347,1.347,0,0,0-.974.837c-.5-.611.294-.951.294-.951a.781.781,0,0,1-.61-.5Zm8.859-.52a4.123,4.123,0,0,0,.816.93,1.18,1.18,0,0,0,.181.135.278.278,0,0,1-.158.045,2.666,2.666,0,0,1-.861-.907C93.149,97.117,93.285,97.139,93.285,97.139Zm-.748.475a3.858,3.858,0,0,0,.431.476,1.664,1.664,0,0,0,.521.408,1.277,1.277,0,0,1-.952-.657c-.091-.182-.068-.25-.068-.25l.068.022Zm.385-.294a2.507,2.507,0,0,0,.838.908c.158.045.114.157.114.157-.136.023-.181-.045-.181-.045a1.431,1.431,0,0,1-.815-.882C92.763,97.207,92.922,97.319,92.922,97.319Z" transform="translate(-14.117 -82.857)" fill="#fff" fill-rule="evenodd"/>
  </g>
</svg>
