<svg xmlns="http://www.w3.org/2000/svg" width="24" height="24" viewBox="0 0 24 24">
  <g id="Group_33703" data-name="Group 33703" transform="translate(-3378 19396)">
    <rect id="Rectangle_12045" data-name="Rectangle 12045" width="24" height="24" transform="translate(3378 -19396)" fill="none"/>
    <g id="noun_coin_2626732" transform="translate(3378.818 -19396.182)">
      <g id="Layer_23" data-name="Layer 23" transform="translate(3 3)">
        <path id="Path_49007" data-name="Path 49007" d="M19.565,15.77v1.187c0,1.721-3.4,3.626-8.282,3.626S3,18.678,3,16.957V15.77A14.545,14.545,0,0,0,11.282,18,14.524,14.524,0,0,0,19.565,15.77Z" transform="translate(-3 -4.018)" fill="#868a94"/>
        <path id="Path_49008" data-name="Path 49008" d="M19.565,10.71V11.9a2.411,2.411,0,0,1-1.16,1.758A12.422,12.422,0,0,1,11.282,15.5,12.8,12.8,0,0,1,4.15,13.655,2.429,2.429,0,0,1,3,11.9V10.728a14.374,14.374,0,0,0,8.282,2.209A14.623,14.623,0,0,0,19.565,10.71Z" transform="translate(-3 -3.615)" fill="#868a94"/>
        <path id="Path_49009" data-name="Path 49009" d="M19.565,6.626a2,2,0,0,1-.672,1.344c-1.38,1.38-4.371,2.282-7.611,2.282C6.4,10.252,3,8.338,3,6.626S6.4,3,11.282,3,19.565,4.9,19.565,6.626Z" transform="translate(-3 -3)" fill="#868a94"/>
      </g>
    </g>
  </g>
</svg>
