<svg xmlns="http://www.w3.org/2000/svg" xmlns:xlink="http://www.w3.org/1999/xlink" width="193.97" height="26.298" viewBox="0 0 193.97 26.298"><defs><style>.a{fill:#fff;}.b{clip-path:url(#a);}</style><clipPath id="a"><path class="a" d="M194.631,8.661l.362,26.3H1.386l-.362-26.3Z" transform="translate(-1.024 -8.661)"/></clipPath></defs><g transform="translate(-1.024 -8.661)"><g class="b" transform="translate(1.024 8.661)"><path class="a" d="M7.269,23.26V16.168L4.94,17.1a6.521,6.521,0,0,0-.466,2.951,7.01,7.01,0,0,0,1.5,3.727Zm6.264-14.6a4.091,4.091,0,0,1,2.019.828,2.557,2.557,0,0,1,.621,2.485,2.659,2.659,0,0,1-1.294,1.76,3.339,3.339,0,0,1-1.449.621v3.417l1.6,1.242-1.6,1.449v4.659a10.077,10.077,0,0,0,2.381-3.21s.052-.1.155-.362a5.787,5.787,0,0,1-.621,3.21,5.879,5.879,0,0,1-2.588,2.8,7.214,7.214,0,0,1-5.177.88,7.122,7.122,0,0,1-4.814-3.21,7.855,7.855,0,0,1-1.191-4.348,7.885,7.885,0,0,1,5.28-6.885,4.015,4.015,0,0,1,.932-.259c-.207.155-.466.311-.777.518a6.1,6.1,0,0,0-2.019,2.588l5.384-2.33v7.3l-4.3,2.122a5.864,5.864,0,0,0,3.313,1.812,6.317,6.317,0,0,0,3.624-.569V20.412l-1.6-1.4,1.6-1.242V14.356a23.313,23.313,0,0,1-2.847-.673c-.984-.207-4.193-1.087-4.711-1.191a2.085,2.085,0,0,0-1.5.259A1.493,1.493,0,0,0,3.49,14.2a1.507,1.507,0,0,0,.466.621,1.045,1.045,0,0,1-.518-.207A2.331,2.331,0,0,1,2.3,12.7,3.21,3.21,0,0,1,3.645,9.9a4.125,4.125,0,0,1,2.847-.673c1.6.207,3.727,1.087,5.643,1.553a2.671,2.671,0,0,0,1.812-.052.837.837,0,0,0,.311-1.191c-.414-.673-1.191-.673-1.864-.777a5.08,5.08,0,0,1,1.139-.1" transform="translate(-1.212 -8.661)"/></g><g class="b" transform="translate(1.024 8.661)"><path class="a" d="M48.466,25.118l-2.485,1.76v-5.8Zm-.1-5.591-2.744,1.6-2.588,1.346v6.73l-.984.777.155.155.984-.777L46.24,32l5.28-4.038-.1-.155-2.951,2.226-2.485-2.122v-.828L50.8,23.669Z" transform="translate(-15.077 -12.384)"/></g><g class="b" transform="translate(1.024 8.661)"><path class="a" d="M28.285,31.434a5.151,5.151,0,0,0,3.417-.466,4.35,4.35,0,0,0,2.278-4.193l.052-2.433V18.958l1.035-.777-.1-.155-1.035.777L31.7,16.214l-3.417,2.537V10.157L24.817,13c.155.1.932.207.932.932V26l-1.812,1.139.1.155.777-.569,2.174,1.967,3.417-2.64-.1-.155-.828.621-1.139-.777V19.01l1.346-.828L31.547,20.1v5.8a7.044,7.044,0,0,1-1.242,4.3,3.205,3.205,0,0,1-2.019,1.242" transform="translate(-8.873 -9.174)"/></g><g class="b" transform="translate(1.024 8.661)"><path class="a" d="M64.651,30.678c-1.346-.155-1.915-.932-1.915-1.6a1.45,1.45,0,0,1,1.242-1.294,2.716,2.716,0,0,1,2.381,1.087L69.517,25.5l-.155-.155-.828.932a5.183,5.183,0,0,0-3.158-1.708v-10.3L73.4,28.71a1,1,0,0,0,.569.155c.311,0,.207-.207.207-.207V14.112a3.241,3.241,0,0,0,2.071-.88,3,3,0,0,0,.777-3.468,1.685,1.685,0,0,1-1.657,1.5,2.878,2.878,0,0,1-2.071-.932l-3.261,3.52.155.155.88-.984a3.515,3.515,0,0,0,2.537,1.139V22.6l-5.85-10.716a3.157,3.157,0,0,0-2.692-1.657,2.894,2.894,0,0,0-2.744,2.381,3.374,3.374,0,0,0,0,1.553s.207-1.4,1.087-1.4c.776,0,1.035.414,1.4.932v3.417c-.828.052-2.8.155-2.951,2.33a2.4,2.4,0,0,0,.984,1.915,2.123,2.123,0,0,0,1.035.362.96.96,0,0,1-.466-1.087c.207-.621,1.4-.725,1.449-.466v4.348a3.879,3.879,0,0,0-3.572,1.812,2.932,2.932,0,0,0,.052,3.054,3.176,3.176,0,0,0,3.313,1.294" transform="translate(-21.53 -9.039)"/></g><g class="b" transform="translate(1.024 8.661)"><path class="a" d="M89.78,25.118l-2.692,1.76v-5.8Zm-.1-5.591-2.8,1.6-2.433,1.346v6.73l-.984.777.155.155.984-.777L87.45,32l5.28-4.038-.1-.155-2.951,2.226L87.3,27.862v-.828l4.814-3.417Z" transform="translate(-29.265 -12.384)"/></g><g class="b" transform="translate(1.024 8.661)"><path class="a" d="M101.739,30.918l-2.588-2.071-1.139.777-.1-.155,1.139-.828V22.79c.052-2.381-2.278-1.812-2.122-4.348a2.975,2.975,0,0,1,1.76-2.226,3.1,3.1,0,0,1,1.242-.311s-1.087.621-.828,1.553c.414,1.449,2.9,1.553,2.951,3.468v6.626l1.6,1.449.466-.362v-7.2l-.725-.984,2.588-2.226,2.381,2.019-1.087.932v6.367l2.381,1.76.414-.259v-7.61l-.984-.932,2.588-2.278,2.433,1.915.984-.828.1.155-2.174,1.864v6.212l-5.539,3.313-2.847-2.122Z" transform="translate(-33.873 -11.143)"/></g><g transform="translate(1.024 8.661)"><g class="b"><path class="a" d="M274.029,25.118l-2.744,1.76v-5.8Zm-.052-5.591-2.8,1.6-2.537,1.346v6.73l-1.087.777.155.155.984-.777L271.752,32l5.28-4.038-.1-.155-2.951,2.226-2.433-2.174v-.828l4.814-3.417Z" transform="translate(-92.328 -12.384)"/></g><path class="a" d="M243.132,19.636l.569-.466,1.5,1.864v5.539l-.466.621,2.174,2.33,2.329-2.226-.932-.88v-6.73l.673-.518,1.915,1.812v5.539l-.777.518,2.433,2.537,3.21-2.847-.155-.155-.777.673L253.486,26V19.688l1.294-.88-.1-.155-1.191.88-2.174-2.381-3.106,2.381-2.226-2.278-3,2.278-2.226-2.278-3.21,2.692.1.155,1.035-.828,1.449,1.6V26.47l-.725.621,2.33,2.537,2.381-2.278-.984-.984Zm-4.5,7.3-.1-.155-.932.777-1.242-1.4V19.9l1.087-.88-.155-.155-1.035.88L234.021,17.2l-3.313,2.588.414.1.828-.673,1.346,1.5v6.367l-.932.777.1.155.984-.828,2.122,2.381Zm-4.452-14.495,1.864,2.019-2.329,2.019-1.864-1.967Z" transform="translate(-79.705 -9.956)"/></g><g class="b" transform="translate(1.024 8.661)"><path class="a" d="M213.7,23.26V16.168l-2.174.932a6.521,6.521,0,0,0-.466,2.951,7.011,7.011,0,0,0,1.5,3.727Zm6.212-14.6a3.913,3.913,0,0,1,2.019.828,2.557,2.557,0,0,1,.621,2.485,2.659,2.659,0,0,1-1.294,1.76,2.453,2.453,0,0,1-1.449.518v3.417l1.553,1.346-1.553,1.346v4.607a9,9,0,0,0,2.381-3.054s.052-.1.155-.362a5.787,5.787,0,0,1-.621,3.21,5.879,5.879,0,0,1-2.588,2.8,7.214,7.214,0,0,1-5.177.88,7.122,7.122,0,0,1-4.814-3.21,7.855,7.855,0,0,1-1.191-4.348,7.885,7.885,0,0,1,5.28-6.885,3.388,3.388,0,0,1,.932-.259c-.207.155-.466.311-.776.518a6.1,6.1,0,0,0-2.019,2.588l5.332-2.226v7.3l-4.245,2.019a5.864,5.864,0,0,0,3.313,1.812,5.637,5.637,0,0,0,3.572-.673V20.309l-1.553-1.346,1.553-1.346V14.2a26.405,26.405,0,0,1-2.8-.569c-.984-.207-4.193-1.087-4.711-1.191a2.085,2.085,0,0,0-1.5.259,1.493,1.493,0,0,0-.466,1.449,1.507,1.507,0,0,0,.466.621,1.045,1.045,0,0,1-.518-.207,2.331,2.331,0,0,1-1.139-1.915,3.21,3.21,0,0,1,1.346-2.8,4.125,4.125,0,0,1,2.847-.673c1.6.207,3.727,1.087,5.643,1.553a2.671,2.671,0,0,0,1.812-.052.837.837,0,0,0,.311-1.191c-.414-.673-1.191-.673-1.864-.777a9.606,9.606,0,0,1,1.139-.052" transform="translate(-71.909 -8.661)"/></g><g class="b" transform="translate(1.024 8.661)"><path class="a" d="M285.827,20.5v3.365l1.449.984a15.686,15.686,0,0,0,3.417-3.727,2.667,2.667,0,0,1-2.64,1.035,3.388,3.388,0,0,1-1.915-1.6m-2.847,8.8a3.073,3.073,0,0,1,3-1.4,4.122,4.122,0,0,1,2.64,2.226V25.931l-1.5-1.035c-1.346,1.346-3.831,3.261-4.141,4.452m1.812,3.21a2.253,2.253,0,0,1-2.226-1.812c-.362-1.5.725-2.485,2.33-4.09l-1.915-1.708v-3.21s1.4-.673,2.485-1.346l2.226-1.4a2.6,2.6,0,0,0,1.76.932c1.449-.1,1.4-1.242,1.346-1.5.259.414.932,1.708-1.657,4.555l2.071,1.6v4.193a40.361,40.361,0,0,0-4.711,2.847s-1.294-1.553-2.381-.828c-.725.569-.362,1.4.673,1.76" transform="translate(-97.551 -12.006)"/></g><g class="b" transform="translate(1.024 8.661)"><path class="a" d="M157.167,28.146l2.692,2.33V23.331l-2.692-2.381Zm5.746-5.85.932-.828.155.155-1.139.828v6.678l-2.692,1.553-2.485,1.449-3.158-2.588-.828.725-.155-.155,1.087-.725V22.141h-.155l2.744-1.346,2.381-1.346Z" transform="translate(-53.271 -12.357)"/></g><g class="b" transform="translate(1.024 8.661)"><path class="a" d="M174.625,21.65l2.019-2.019a1.889,1.889,0,0,0,.518.362,1.5,1.5,0,0,0,1.294.052,1.962,1.962,0,0,0,.673-.518,3.225,3.225,0,0,1-1.657,3.106,2.562,2.562,0,0,1-3-.88v7.2l1.5,1.087,1.087-.828.1.155-3.313,2.692-2.537-2.226-.932.828-.155-.155,1.139-1.191v-6.16l-.828-1.346-.932.777-.155-.155,3.21-2.8Z" transform="translate(-58.719 -12.384)"/></g><g class="b" transform="translate(1.024 8.661)"><path class="a" d="M190.236,24.6l3.727-5.228a2.953,2.953,0,0,0,1.346.777,2.523,2.523,0,0,0,2.174-.777c-.207,1.4-.932,3-2.433,3.261a3.813,3.813,0,0,1-2.588-.777l-.259.362,5.177,7.558,1.035-.88.155.155-3.572,3Z" transform="translate(-65.84 -12.33)"/></g><g class="b" transform="translate(1.024 8.661)"><path class="a" d="M184.936,14.267c0-1.139-.673-1.812-1.294-1.76l3.883-2.744V25.4l1.242,1.087.828-.673.155.155-3.261,2.744-2.226-2.019-.88.777-.155-.155,1.76-1.294V14.267Z" transform="translate(-63.44 -9.039)"/></g><g class="b" transform="translate(1.024 8.661)"><path class="a" d="M140.243,19.1a1.688,1.688,0,0,1-1.139.518,1.22,1.22,0,0,1-1.035-.518v2.122A1.22,1.22,0,0,1,139.1,20.7a1.6,1.6,0,0,1,1.139.466Zm-.1-4.555L138.846,13.2l-.776.569v5.021a1.677,1.677,0,0,0,1.191.569.859.859,0,0,0,.88-.569Zm-2.071,14.184a2.031,2.031,0,0,0,1.657-.311,1.247,1.247,0,0,0,.414-1.449V21.584a.931.931,0,0,0-.88-.569,1.677,1.677,0,0,0-1.191.569ZM132.375,14.44c0-1.035-.466-1.657-1.139-1.657-1.035,0-1.294,1.4-1.294,1.4a2.464,2.464,0,0,1,.776-2.071,3.011,3.011,0,0,1,3.054-.984A2.645,2.645,0,0,1,136,13.767V28.314a7.972,7.972,0,0,0,.828.155,5.17,5.17,0,0,1,.725.207v-17.5h.518V13.56l3.158-2.537,2.381,2.071,1.139-.932.1.155-1.139.984V26.812a2.519,2.519,0,0,1-1.087,2.278c-1.915,1.087-4.245-.155-6.316-.466-1.553-.207-3.934-.518-4.555.88a1.222,1.222,0,0,0,.518,1.6c1.4.88,7.61-1.5,9.732-.569a2.529,2.529,0,0,1,1.657,3.21c-.518,1.76-2.847,2.122-2.847,2.122a1.59,1.59,0,0,0,.828-1.708c-.155-.518-.518-.673-1.76-.569-2.64.311-5.85,1.553-7.972.673a3.284,3.284,0,0,1-1.812-3.106c.052-1.864,2.329-2.64,2.329-2.64V21.532c-.052-.259-1.242-.207-1.553.311-.414.776.518,1.139.518,1.139a1.64,1.64,0,0,1-1.346-.569,2.13,2.13,0,0,1-.1-2.64,3.065,3.065,0,0,1,2.537-1.191Z" transform="translate(-45.044 -9.471)"/></g></g></svg>