<svg xmlns="http://www.w3.org/2000/svg" width="124" height="40" viewBox="0 0 124 40">
    <g id="PayPayl" transform="translate(-416 -2036)">
        <g id="Group_33531" data-name="Group 33531">
            <rect id="Rectangle_12114" data-name="Rectangle 12114" width="124" height="40" transform="translate(416 2036)" fill="none"/>
            <g id="g10" transform="translate(425.231 2183.352)">
                <g id="g12" transform="translate(0 -140.371)">
                    <path id="path14" d="M13.036-140.366H4.587a1.174,1.174,0,0,0-1.16.991L.009-117.707a.7.7,0,0,0,.7.813H4.74a1.174,1.174,0,0,0,1.16-.992l.922-5.844a1.173,1.173,0,0,1,1.159-.992h2.675c5.566,0,8.779-2.694,9.618-8.031.378-2.335.016-4.17-1.077-5.455-1.2-1.411-3.331-2.157-6.159-2.157Zm.975,7.914c-.462,3.032-2.779,3.032-5.019,3.032H7.717l.895-5.663a.7.7,0,0,1,.7-.594h.584c1.526,0,2.965,0,3.709.87a2.816,2.816,0,0,1,.41,2.355" transform="translate(0 140.367)" fill="#383a41"/>
                    <path id="path16" d="M112.025-103.93h-4.046a.705.705,0,0,0-.7.594L107.1-102.2l-.283-.41c-.876-1.271-2.83-1.7-4.779-1.7a9.305,9.305,0,0,0-9.034,8.137,7.638,7.638,0,0,0,1.507,6.216,6.331,6.331,0,0,0,5.1,2.058,7.742,7.742,0,0,0,5.6-2.316l-.18,1.124a.7.7,0,0,0,.694.815h3.645a1.174,1.174,0,0,0,1.16-.992l2.187-13.849A.7.7,0,0,0,112.025-103.93Zm-5.64,7.875a4.51,4.51,0,0,1-4.565,3.864A3.413,3.413,0,0,1,99.1-93.283a3.44,3.44,0,0,1-.635-2.843A4.529,4.529,0,0,1,103-100.02a3.414,3.414,0,0,1,2.7,1.1,3.5,3.5,0,0,1,.684,2.863" transform="translate(-73.731 111.748)" fill="#383a41"/>
                    <path id="path18" d="M217.622-102.466h-4.066a1.178,1.178,0,0,0-.972.515l-5.608,8.261-2.377-7.938a1.178,1.178,0,0,0-1.127-.838h-4a.7.7,0,0,0-.668.932l4.479,13.144-4.211,5.944a.7.7,0,0,0,.575,1.112h4.061a1.172,1.172,0,0,0,.965-.5L218.2-101.36a.7.7,0,0,0-.578-1.106" transform="translate(-157.777 110.283)" fill="#383a41"/>
                    <path id="path20" d="M305.286-140.366h-8.451a1.174,1.174,0,0,0-1.159.991l-3.418,21.668a.7.7,0,0,0,.695.813h4.337a.821.821,0,0,0,.81-.694l.97-6.142a1.173,1.173,0,0,1,1.159-.992H302.9c5.567,0,8.779-2.694,9.619-8.031.379-2.335.015-4.17-1.079-5.455-1.2-1.411-3.329-2.157-6.157-2.157Zm.975,7.914c-.461,3.032-2.777,3.032-5.019,3.032h-1.274l.9-5.663a.7.7,0,0,1,.694-.594h.584c1.525,0,2.965,0,3.709.87a2.817,2.817,0,0,1,.409,2.355" transform="translate(-231.978 140.367)" fill="#383a41"/>
                    <path id="path22" d="M404.29-103.93h-4.044a.7.7,0,0,0-.694.594l-.179,1.132-.284-.41c-.876-1.271-2.828-1.7-4.778-1.7a9.3,9.3,0,0,0-9.033,8.137,7.641,7.641,0,0,0,1.506,6.216,6.334,6.334,0,0,0,5.1,2.058,7.742,7.742,0,0,0,5.6-2.316l-.18,1.124a.7.7,0,0,0,.7.815h3.644a1.174,1.174,0,0,0,1.159-.992l2.188-13.849A.706.706,0,0,0,404.29-103.93Zm-5.64,7.875a4.508,4.508,0,0,1-4.565,3.864,3.417,3.417,0,0,1-2.717-1.091,3.449,3.449,0,0,1-.635-2.843,4.531,4.531,0,0,1,4.535-3.894,3.414,3.414,0,0,1,2.7,1.1,3.485,3.485,0,0,1,.684,2.863" transform="translate(-305.725 111.748)" fill="#383a41"/>
                    <path id="path24" d="M487.681-139.776l-3.468,22.064a.7.7,0,0,0,.695.813h3.487a1.172,1.172,0,0,0,1.16-.992l3.42-21.666a.7.7,0,0,0-.694-.814h-3.9a.706.706,0,0,0-.694.6" transform="translate(-384.345 140.371)" fill="#383a41"/>
                </g>
            </g>
        </g>
    </g>
</svg>
