<svg xmlns="http://www.w3.org/2000/svg" width="20" height="20" viewBox="0 0 20 20"><defs><style>.a{fill:none;}.b{fill:#cacacc;}</style></defs><g transform="translate(10072 7877)"><rect class="a" width="20" height="20" transform="translate(-10072 -7877)"/><path class="b" d="M26.512,2.26a.528.528,0,0,0-.381-.436L19.644.02a.527.527,0,0,0-.283,0l-6.487,1.8a.528.528,0,0,0-.381.436c-.038.271-.9,6.663,1.306,9.844a10.357,10.357,0,0,0,5.58,4.024.529.529,0,0,0,.248,0,10.357,10.357,0,0,0,5.58-4.024C27.408,8.923,26.55,2.53,26.512,2.26ZM23.686,5.992l-4.425,4.425a.527.527,0,0,1-.746,0L15.779,7.681a.527.527,0,0,1,0-.746l.543-.543a.527.527,0,0,1,.746,0l1.82,1.82L22.4,4.7a.527.527,0,0,1,.746,0l.543.543A.528.528,0,0,1,23.686,5.992Z" transform="translate(-10081.388 -7875.071)"/></g></svg>