<svg id="Tatler" xmlns="http://www.w3.org/2000/svg" width="89.801" height="25.019" viewBox="0 0 89.801 25.019">
  <path id="Path_54349" data-name="Path 54349" d="M544.156,26.442V18.35a3.268,3.268,0,0,1,4.08,2.28,4.02,4.02,0,0,1-1.5,4.7,6.6,6.6,0,0,1-2.58,1.11m3,15.627h5.465c-.014-.149-.028-.268-.043-.422h-1.037c-1.5-5.215-2.99-10.391-4.485-15.588.208-.085.392-.158.572-.232a6.668,6.668,0,0,0,2.413-1.6c1.7-1.852,1.6-5.144-1.546-6.024a9.835,9.835,0,0,0-2.4-.34c-1.971-.048-3.943-.016-5.914-.016h-.41c0,.285,0,.285.985.478V41.675h-.98v.4h5.365v-.416h-.975v-15c.021,0,.044-.008.066-.011,1.323,4.991,2.647,9.983,3.984,15.021H547.16Z" transform="translate(-462.824 -17.061)" fill="#fff"/>
  <path id="Path_54350" data-name="Path 54350" d="M435.586,18.364h.973v23.4h-.98v.405H443.6v-5.06c-.33-.1-.4.041-.394.322.011,1.285,0,2.568,0,3.852v.449h-3.231V27.085h1.848v2.907l.4-.03V23.724l-.419.026V26.6h-1.839V18.388h3.244v.493c0,1.27,0,2.539,0,3.809,0,.319.1.416.4.294V17.944h-8.046c.011.149.021.267.03.42" transform="translate(-373.878 -17.155)" fill="#fff"/>
  <path id="Path_54351" data-name="Path 54351" d="M14.646,23.088l.411-.021V18.458h2.266V41.829h-.965v.395h5.391c-.015-.149-.027-.269-.042-.417h-.97V18.445H23.03v4.627h.389V18.014H14.646Z" transform="translate(-14.646 -17.215)" fill="#fff"/>
  <path id="Path_54352" data-name="Path 54352" d="M219.942,22.989l.42-.022V18.356h2.269V41.725h-.975v.4h5.373v-.408h-.989V18.356h2.3v.507c0,1.256.006,2.509,0,3.765,0,.3.073.435.39.33V17.9h-8.779Z" transform="translate(-189.859 -17.115)" fill="#fff"/>
  <path id="Path_54353" data-name="Path 54353" d="M341.766,41.726h-3.219V18.35h.971v-.406H334.1c.1.756.719.208,1.012.52V41.771h-.994c.011.157.021.277.03.392h8.034V37.108h-.419Z" transform="translate(-287.291 -17.155)" fill="#fff"/>
  <path id="Path_54354" data-name="Path 54354" d="M111.2,28.4c.341-1.955.679-3.889,1.017-5.822l.079.014c.318,1.922.635,3.844.959,5.809Zm5.391.512q-.731-4.121-1.458-8.245c-.479-2.7-.924-5.415-1.451-8.11l-.187.014q-2.122,12.276-4.25,24.594h-1.06c.012.168.022.287.031.4h2.535c-.015-.148-.026-.267-.041-.422h-1.035c.481-2.776.953-5.507,1.433-8.267.64,0,1.237.015,1.835-.006.3-.009.412.08.463.4.315,2,.658,4,.988,6.007.1.616.195,1.233.3,1.9h-1.1v.395h5.378v-.42h-.908c-.495-2.776-.983-5.508-1.469-8.24" transform="translate(-94.478 -12.561)" fill="#fff"/>
</svg>
