<svg xmlns="http://www.w3.org/2000/svg" width="47.615" height="41.422" viewBox="0 0 47.615 41.422">
  <g id="tether-usdt-logo" transform="translate(-0.005 0)">
    <path id="Path_54345" data-name="Path 54345" d="M8.723.2.041,18.44a.354.354,0,0,0,.076.412L23.565,41.322a.358.358,0,0,0,.5,0L47.509,18.854a.354.354,0,0,0,.076-.412L38.9.2a.351.351,0,0,0-.32-.2H9.046a.351.351,0,0,0-.323.2h0Z" fill="#50af95" fill-rule="evenodd"/>
    <path id="Path_54346" data-name="Path 54346" d="M81.937,54.9h0c-.168.013-1.038.065-2.978.065-1.543,0-2.639-.046-3.023-.065h0c-5.963-.262-10.415-1.3-10.415-2.543s4.451-2.28,10.415-2.546v4.056c.39.028,1.507.094,3.05.094,1.852,0,2.779-.077,2.946-.093V49.813c5.951.265,10.392,1.3,10.392,2.543s-4.44,2.278-10.392,2.542h0Zm0-5.506V45.764h8.3V40.23H67.631v5.534h8.3v3.628c-6.749.31-11.825,1.647-11.825,3.249s5.075,2.938,11.825,3.249v11.63h6V55.886c6.734-.31,11.8-1.646,11.8-3.246s-5.063-2.936-11.8-3.248h0Zm0,0Z" transform="translate(-55.112 -34.587)" fill="#fff" fill-rule="evenodd"/>
  </g>
</svg>
