<svg xmlns="http://www.w3.org/2000/svg" width="48" height="48" viewBox="0 0 48 48">
    <g id="Group_33476" data-name="Group 33476" transform="translate(-69 -1926.832)">
        <rect id="Rectangle_10810" data-name="Rectangle 10810" width="48" height="48" transform="translate(69 1926.832)" fill="none"/>
        <g id="Group_25502" data-name="Group 25502" transform="translate(69 1928.052)">
            <g id="Group_25501" data-name="Group 25501">
                <path id="Path_42302" data-name="Path 42302" d="M343.321,181.236h1.718a23.265,23.265,0,0,0-8.192-11.607,22.8,22.8,0,0,0-13.805-4.609,23.025,23.025,0,0,0,0,46.051,22.791,22.791,0,0,0,13.916-4.694,23.246,23.246,0,0,0,8.163-11.8h-1.709a21.63,21.63,0,0,1-7.64,10.647,21.2,21.2,0,0,1-12.73,4.211,21.393,21.393,0,1,1,20.279-28.2" transform="translate(-300.017 -165.02)" fill="#44454d"/>
                <path id="Path_42303" data-name="Path 42303" d="M334.864,200.339V187.088H340V182.27h-5.133v-6.914h-5.5v6.914h-4.19v4.819h4.19V201.7c0,4.19,2.252,6.495,6.494,6.495,2.567,0,4.19-.681,5.185-1.624l-1.31-4.138a3.552,3.552,0,0,1-2.462.89c-1.571,0-2.409-1.257-2.409-2.985" transform="translate(-310.32 -169.253)" fill="#44454d"/>
                <path id="Path_42304" data-name="Path 42304" d="M376.545,201.209a3.23,3.23,0,1,0-3.23,3.23,3.268,3.268,0,0,0,3.23-3.23" transform="translate(-328.713 -178.518)" fill="#44454d"/>
            </g>
        </g>
    </g>
</svg>
