<svg id="Twitter" xmlns="http://www.w3.org/2000/svg" width="32" height="32" viewBox="0 0 32 32">
  <g id="Component_54_1" data-name="Component 54 – 1">
    <rect id="Rectangle_12098" data-name="Rectangle 12098" width="32" height="32" rx="4" fill="#333438"/>
  </g>
  <g id="Ic_Twitter" transform="translate(-1521 -1932)">
    <rect id="Rectangle_12109" data-name="Rectangle 12109" width="32" height="32" transform="translate(1521 1932)" fill="none"/>
    <g id="iconfinder_1_Twitter_colored_svg_5296514" transform="translate(1526 1891.014)">
      <rect id="Rectangle_12099" data-name="Rectangle 12099" width="17.712" height="17.712" transform="translate(2.48 48.342)" fill="none"/>
      <path id="Path_49103" data-name="Path 49103" d="M7.13,66.409A13.145,13.145,0,0,0,20.365,53.174c0-.2,0-.4-.014-.6a9.464,9.464,0,0,0,2.321-2.408A9.286,9.286,0,0,1,20,50.9a4.668,4.668,0,0,0,2.045-2.573,9.323,9.323,0,0,1-2.954,1.129A4.656,4.656,0,0,0,11.164,53.7a13.212,13.212,0,0,1-9.586-4.86,4.674,4.674,0,0,0,1.44,6.209,4.617,4.617,0,0,1-2.111-.582v.059a4.667,4.667,0,0,0,3.732,4.56,4.645,4.645,0,0,1-2.1.08,4.666,4.666,0,0,0,4.346,3.23,9.336,9.336,0,0,1-5.777,2A9.463,9.463,0,0,1,0,64.319a13.17,13.17,0,0,0,7.13,2.086" transform="translate(0)" fill="#868b99"/>
    </g>
  </g>
</svg>
