<svg xmlns="http://www.w3.org/2000/svg"
    xmlns:xlink="http://www.w3.org/1999/xlink" width="96" height="40" viewBox="0 0 96 40">
    <defs>
        <clipPath id="clip-path">
            <path id="path10273" d="M1846.167-493.949c-.046,3.6,3.2,5.6,5.653,6.8,2.516,1.224,3.361,2.009,3.351,3.1-.019,1.676-2.007,2.415-3.867,2.444a13.5,13.5,0,0,1-6.633-1.577l-1.169,5.471a19.45,19.45,0,0,0,7.183,1.325c6.784,0,11.223-3.349,11.247-8.541.026-6.59-9.115-6.955-9.053-9.9.022-.893.874-1.846,2.741-2.089a12.159,12.159,0,0,1,6.369,1.116l1.135-5.293a17.312,17.312,0,0,0-6.045-1.109c-6.386,0-10.877,3.394-10.913,8.253m27.869-7.8a2.944,2.944,0,0,0-2.749,1.832l-9.691,23.139h6.779l1.349-3.728h8.284l.783,3.728h5.975l-5.214-24.971h-5.517m.948,6.746,1.956,9.377h-5.358l3.4-9.377m-37.036-6.746-5.344,24.971h6.46l5.341-24.971h-6.458m-9.557,0-6.724,17-2.72-14.452a3.011,3.011,0,0,0-2.979-2.545h-10.992l-.154.725a26.9,26.9,0,0,1,6.374,2.125,2.734,2.734,0,0,1,1.534,2.194l5.152,19.927h6.827l10.467-24.971h-6.784" transform="translate(-1804.822 502.203)" fill="#383a41"/>
        </clipPath>
    </defs>
    <g id="Group_33530" data-name="Group 33530" transform="translate(-268 -2037)">
        <rect id="Rectangle_12113" data-name="Rectangle 12113" width="96" height="40" transform="translate(268 2037)" fill="none"/>
        <g id="layer1" transform="translate(-58.703 1506.576)">
            <g id="g10267" transform="translate(334.703 537.424)">
                <g id="g10269" transform="translate(0 0)" clip-path="url(#clip-path)">
                    <g id="g10275" transform="translate(-8.372 -25.926)">
                        <path id="path10283" d="M0-151.7,78.769-180.7l17.92,48.659L17.92-103.037" transform="translate(0 180.705)" fill="#383a41"/>
                    </g>
                </g>
            </g>
        </g>
    </g>
</svg>
