<svg id="Youtube" xmlns="http://www.w3.org/2000/svg" width="32" height="32" viewBox="0 0 32 32">
  <g id="Group_33496" data-name="Group 33496" transform="translate(-1670 -1844)">
    <rect id="Rectangle_12098" data-name="Rectangle 12098" width="32" height="32" rx="4" transform="translate(1670 1844)" fill="#333438"/>
  </g>
  <g id="Ic_youtube" transform="translate(-1467 -1932)">
    <rect id="Rectangle_12110" data-name="Rectangle 12110" width="32" height="32" transform="translate(1467 1932)" fill="none"/>
    <g id="iconfinder_1_Youtube_colored_svg_5296521" transform="translate(1918.998 736.199)">
      <path id="Subtraction_51" data-name="Subtraction 51" d="M11.155,16.033c-.017,0-1.767,0-3.706-.062-1.14-.035-2.121-.082-2.915-.141a12.611,12.611,0,0,1-2.1-.277A2.826,2.826,0,0,1,.466,13.527,11.576,11.576,0,0,1,.2,11.914c-.059-.533-.1-1.141-.139-1.811C0,8.961,0,8.025,0,8.016S0,7.072.058,5.93C.092,5.258.138,4.65.2,4.119A11.611,11.611,0,0,1,.466,2.5,2.839,2.839,0,0,1,2.439.477,12.947,12.947,0,0,1,4.535.2C5.329.143,6.309.1,7.449.059,9.385,0,11.138,0,11.155,0s1.77,0,3.706.059C16,.1,16.98.143,17.776.2a12.989,12.989,0,0,1,2.1.273A2.838,2.838,0,0,1,21.844,2.5a11.6,11.6,0,0,1,.27,1.615c.058.531.1,1.139.138,1.811.058,1.143.059,2.076.059,2.086s0,.945-.059,2.088c-.034.672-.081,1.277-.138,1.811a11.566,11.566,0,0,1-.27,1.613,2.825,2.825,0,0,1-1.972,2.025,12.651,12.651,0,0,1-2.1.277c-.8.059-1.775.105-2.916.141C12.921,16.033,11.172,16.033,11.155,16.033ZM8.924,4.58v6.873l5.8-3.437L8.924,4.58Z" transform="translate(-446.998 1203.801)" fill="#868b99"/>
    </g>
  </g>
</svg>
