<svg id="Logo_symbol_" data-name="Logo_symbol " xmlns="http://www.w3.org/2000/svg" width="48" height="48" viewBox="0 0 48 48">
  <rect id="Rectangle_10810" data-name="Rectangle 10810" width="48" height="48" fill="none"/>
  <g id="Group_25502" data-name="Group 25502" transform="translate(-296.018 -160.02)">
    <g id="Group_25501" data-name="Group 25501" transform="translate(300.017 165.02)">
      <path id="Path_42302" data-name="Path 42302" d="M336.314,178.612h1.44a19.5,19.5,0,0,0-6.866-9.729,19.114,19.114,0,0,0-11.572-3.863,19.3,19.3,0,1,0,0,38.6,19.1,19.1,0,0,0,11.665-3.934,19.484,19.484,0,0,0,6.842-9.888h-1.433a18.13,18.13,0,0,1-6.4,8.924,17.766,17.766,0,0,1-10.67,3.53,17.931,17.931,0,1,1,17-23.639" transform="translate(-300.017 -165.02)" fill="#f9be00"/>
      <path id="Path_42303" data-name="Path 42303" d="M333.3,196.3V185.19h4.3v-4.039h-4.3v-5.795h-4.61v5.795h-3.512v4.039h3.512v12.248c0,3.512,1.888,5.444,5.444,5.444a6.083,6.083,0,0,0,4.346-1.361l-1.1-3.468a2.977,2.977,0,0,1-2.063.746c-1.317,0-2.019-1.054-2.019-2.5" transform="translate(-312.723 -170.241)" fill="#f9be00"/>
      <path id="Path_42304" data-name="Path 42304" d="M375.5,200.686a2.707,2.707,0,1,0-2.707,2.707,2.739,2.739,0,0,0,2.707-2.707" transform="translate(-335.407 -181.667)" fill="#f9be00"/>
    </g>
  </g>
</svg>
