<svg xmlns="http://www.w3.org/2000/svg" width="280" height="280" viewBox="0 0 280 280">
    <g id="Group_33475" data-name="Group 33475" transform="translate(-3381 3182)">
        <rect id="Rectangle_12084" data-name="Rectangle 12084" width="280" height="280" transform="translate(3381 -3182)" fill="none"/>
        <g id="Group_33464" data-name="Group 33464" transform="translate(2748.5 -3661.5)">
            <g id="Group_33460" data-name="Group 33460" transform="translate(304.395 478.323)">
                <g id="Group_33457" data-name="Group 33457" transform="translate(341.925 15.44)">
                    <path id="Path_49078" data-name="Path 49078" d="M764.241,60.6A14.179,14.179,0,0,0,758.1,41.509c-6.967-3.576-20.353-3.313-23.93,3.653s7.145,12.945,11.518,19.442C751.788,73.664,760.665,67.565,764.241,60.6Z" transform="translate(-502.942 -24.973)" fill="#303338" opacity="0.47"/>
                    <path id="Path_49079" data-name="Path 49079" d="M730.186,416.957a10.863,10.863,0,0,0,15.018-3.234c3.254-5.04,4.067-15.266-.974-18.52s-10.41,4.467-15.694,7.308C721.167,406.474,725.146,413.7,730.186,416.957Z" transform="translate(-499.348 -167.221)" fill="#303338" opacity="0.47"/>
                    <path id="Path_49080" data-name="Path 49080" d="M374.055,19.1a13.7,13.7,0,0,0-19.36.716c-5.148,5.544-8.4,18.063-2.861,23.212s13.909-3.26,21.1-5.627C382.951,34.1,379.6,24.25,374.055,19.1Z" transform="translate(-348.945 -15.44)" fill="#303338" opacity="0.47"/>
                </g>
                <g id="Group_33459" data-name="Group 33459" transform="translate(331.418 36.062)">
                    <path id="Path_49081" data-name="Path 49081" d="M336.476,92.725a56.491,56.491,0,0,0-3.921,34.664c2.788,13.6,11.253,24.04,8.315,38.544-1.789,8.834-2.237,17.018-3.144,25.759-1.863,17.949,9.792,33.764,24.249,42.3,11.742,6.936,25.509,9.539,39.009,9.354,12.151-.167,24.28-2.411,36.054-5.428,11.346-2.907,22.44-6.738,34.333-5.53,9.892,1.005,18.8,5.282,28.012,8.47,21.993,7.613,48.634,8.687,68.745-2.9a58.019,58.019,0,0,0,27.155-63.182c-2.464-10.879-6.624-21.846-5.333-33.18.9-7.9,4.514-15.523,3.852-23.445-.44-5.264-2.758-10.2-5.592-14.661C577.861,87.217,560.533,76.32,542.2,70.316c-17.249-5.65-35.038-9.742-53-8.383-37.13,2.811-44.7-3.087-82.646-11.2-24.5-5.24-51.9,13.438-66.236,35.075A51.74,51.74,0,0,0,336.476,92.725Z" transform="translate(-331.418 -49.839)" fill="#303338" opacity="0.47"/>
                    <g id="Group_33458" data-name="Group 33458" transform="translate(12.096 11.037)">
                        <path id="Path_49082" data-name="Path 49082" d="M370.1,116.821c-.762,8.568,2.128,17.4-.288,25.883-2.892,10.159-11.263,17.768-14.675,27.742a64.225,64.225,0,0,0,1.323,45.613c2.951,6.921,7.262,13.354,13.149,17.8,9.076,6.858,20.967,8.361,32.151,7.491,16.644-1.294,34.208-8.5,50.942-6.535,9.235,1.084,12.055,11.079,16.824,17.673A55.269,55.269,0,0,0,490.391,269.7a59.154,59.154,0,0,0,48.2,1.349c16.322-6.951,30.549-23.928,29.613-43.126-.432-8.882-3.988-17.7-2.342-26.431,2.066-10.952,10.318-20.933,16.3-29.856a68.85,68.85,0,0,0,11.386-33.6q.013-.2.025-.408a45.753,45.753,0,0,0-31.5-46.023L520.187,77.837c-42.5-13.976-84.955-13.514-124.029,7C387.7,89.273,373.935,102.5,371.1,111.616A24.852,24.852,0,0,0,370.1,116.821Z" transform="translate(-351.502 -68.251)" fill="#303338" opacity="0.81"/>
                    </g>
                </g>
            </g>
            <g id="Group_33463" data-name="Group 33463" transform="translate(-148.449 40.001)">
                <path id="Path_49086" data-name="Path 49086" d="M889.015,551.839s-3.249-12.427-18.782-12.4a19.518,19.518,0,0,0-18.784,12.4" transform="translate(0)" fill="none" stroke="#4d4f53" stroke-linecap="round" stroke-linejoin="round" stroke-width="5"/>
                <path id="Path_49087" data-name="Path 49087" d="M924.549,551.839s-3.249-12.427-18.784-12.4a19.517,19.517,0,0,0-18.782,12.4" transform="translate(58.161)" fill="none" stroke="#4d4f53" stroke-linecap="round" stroke-linejoin="round" stroke-width="5"/>
                <path id="Path_49088" data-name="Path 49088" d="M863.692,566.287s25.694,20.991,52.48,0" transform="translate(25.323 43.938)" fill="none" stroke="#4d4f53" stroke-linecap="round" stroke-linejoin="round" stroke-width="6"/>
            </g>
        </g>
    </g>
</svg>
