<svg xmlns="http://www.w3.org/2000/svg" width="32" height="32" viewBox="0 0 32 32"><defs><style>.a{fill:#f8bb16;}</style></defs><path class="a" d="M16,0A16,16,0,1,0,32,16,16,16,0,0,0,16,0Zm0,30.933A14.933,14.933,0,1,1,30.933,16,14.933,14.933,0,0,1,16,30.933Zm0,0"/><path class="a" d="M135.586,144H120.537a.537.537,0,0,0-.537.537v11.824a.537.537,0,0,0,.537.537h15.048a.537.537,0,0,0,.537-.537V144.537A.537.537,0,0,0,135.586,144Zm-1.451,1.075-6.073,5.2-6.073-5.2Zm-13.06,10.749V145.706l6.637,5.689a.537.537,0,0,0,.7,0l6.638-5.689v10.118Zm0,0" transform="translate(-112.062 -134.449)"/></svg>