<svg xmlns="http://www.w3.org/2000/svg" width="32" height="32" viewBox="0 0 32 32">
  <g id="Group_34442" data-name="Group 34442" transform="translate(-1667 -899)">
    <g id="Ic_phonel" transform="translate(1667.2 899)">
      <g id="Group_34441" data-name="Group 34441" transform="translate(6.225 6.324)">
        <g id="Group_34440" data-name="Group 34440">
          <path id="Path_115270" data-name="Path 115270" d="M119.724,116.61l-3.081-3.07a1.793,1.793,0,0,0-2.535,0h0l-1.765,1.765a.389.389,0,0,1-.5.044,20.347,20.347,0,0,1-4.753-4.665.384.384,0,0,1,.038-.5l1.809-1.809a1.793,1.793,0,0,0,0-2.533l-3.081-3.081a1.837,1.837,0,0,0-2.538,0l-.976.976a5.482,5.482,0,0,0-1.36,5.592,16.445,16.445,0,0,0,2.006,4.068,21.324,21.324,0,0,0,6.156,6.047,15.694,15.694,0,0,0,4.561,2.028,5.28,5.28,0,0,0,1.272.153,5.548,5.548,0,0,0,3.909-1.645l.839-.839a1.793,1.793,0,0,0,0-2.531Zm-.776,1.785h0l0-.016-.839.839a4.386,4.386,0,0,1-4.139,1.184,14.573,14.573,0,0,1-4.232-1.9,20.269,20.269,0,0,1-5.833-5.718A15.348,15.348,0,0,1,102.033,109a4.386,4.386,0,0,1,1.1-4.479l.976-.976a.7.7,0,0,1,.985,0h0l3.081,3.081a.7.7,0,0,1,0,.985h0l-1.809,1.809a1.475,1.475,0,0,0-.153,1.919,21.6,21.6,0,0,0,5.016,4.923,1.486,1.486,0,0,0,1.9-.164l1.749-1.776a.7.7,0,0,1,.985,0h0l3.086,3.092a.7.7,0,0,1,0,.986Z" transform="translate(-100.712 -102.253)" fill="#f8bb16"/>
        </g>
      </g>
    </g>
    <g id="Path_115271" data-name="Path 115271" transform="translate(1667 899)" fill="none">
      <path d="M16,0A16,16,0,1,1,0,16,16,16,0,0,1,16,0Z" stroke="none"/>
      <path d="M 16 1 C 11.99334907531738 1 8.226520538330078 2.560270309448242 5.393400192260742 5.393400192260742 C 2.560270309448242 8.226520538330078 1 11.99334907531738 1 16 C 1 20.00664901733398 2.560270309448242 23.77347946166992 5.393400192260742 26.60659980773926 C 8.226520538330078 29.43972969055176 11.99334907531738 31 16 31 C 20.00664901733398 31 23.77347946166992 29.43972969055176 26.60659980773926 26.60659980773926 C 29.43972969055176 23.77347946166992 31 20.00664901733398 31 16 C 31 11.99334907531738 29.43972969055176 8.226520538330078 26.60659980773926 5.393400192260742 C 23.77347946166992 2.560270309448242 20.00664901733398 1 16 1 M 16 0 C 24.8365592956543 0 32 7.163440704345703 32 16 C 32 24.8365592956543 24.8365592956543 32 16 32 C 7.163440704345703 32 0 24.8365592956543 0 16 C 0 7.163440704345703 7.163440704345703 0 16 0 Z" stroke="none" fill="#f8bb16"/>
    </g>
  </g>
</svg>
