<svg xmlns="http://www.w3.org/2000/svg" width="24" height="24" viewBox="0 0 24 24"><defs><style>.a{fill:none;}.b{fill:#e70305;}</style></defs><g transform="translate(-6016 6420)"><rect class="a" width="24" height="23.729" transform="translate(6016 -6420)"/><g transform="translate(6022.122 -6420)"><path class="b" d="M143.477,17.5a.956.956,0,0,0-1.341,0l-3.31,3.289V.938a.948.948,0,0,0-1.9,0V20.792L133.62,17.5a.956.956,0,0,0-1.341,0,.93.93,0,0,0,0,1.326l4.93,4.9h0a.956.956,0,0,0,1.342,0h0l4.93-4.9A.93.93,0,0,0,143.477,17.5Z" transform="translate(-132)"/></g></g></svg>