<svg id="Group_32299" data-name="Group 32299" xmlns="http://www.w3.org/2000/svg" width="149.216" height="179.471" viewBox="0 0 149.216 179.471">
    <g id="Group_32294" data-name="Group 32294" transform="translate(0 0)">
        <path id="Path_48806" data-name="Path 48806" d="M1097.476,608.165a9.251,9.251,0,0,0-6.355,8.468v81.716a51.51,51.51,0,0,0,21.24,41.907l48,30.763a10.147,10.147,0,0,0,10.732,0l48-30.763a51.509,51.509,0,0,0,21.239-41.907v-81.5c0-3.791-2.65-7.2-6.671-8.582-58.313-19.963-81.688-20.5-136.19-.1Z" transform="translate(-1091.121 -593.083)" fill="#2e3036"/>
    </g>
    <g id="Group_32297" data-name="Group 32297" transform="translate(37.658 36.55)">
        <path id="Union_66" data-name="Union 66" d="M23.272,83.334A38.072,38.072,0,0,1,0,48.224V30.6a8.532,8.532,0,0,1,8.523-8.523h4.8a14.425,14.425,0,0,1-.157-2.2V17.76A17.78,17.78,0,0,1,30.921,0H41.839A17.78,17.78,0,0,1,59.6,17.76v2.123a14.44,14.44,0,0,1-.157,2.2h3.542A10.918,10.918,0,0,1,73.9,33V50.531a35.768,35.768,0,0,1-35.8,35.8A37.874,37.874,0,0,1,23.272,83.334ZM33.761,32.267a9.637,9.637,0,0,0,1.1,18.5V64a2.088,2.088,0,0,0,4.176,0V50.767a9.732,9.732,0,0,0,1.1-.315,9.636,9.636,0,1,0-6.379-18.185Zm18.51-10.186a10.649,10.649,0,0,0,.228-2.2V17.76A10.671,10.671,0,0,0,41.839,7.1H30.921A10.671,10.671,0,0,0,20.262,17.76v2.123a10.656,10.656,0,0,0,.228,2.2Z" transform="translate(0)" fill="#6b7480" stroke="rgba(0,0,0,0)" stroke-miterlimit="10" stroke-width="1"/>
    </g>
</svg>
