<svg xmlns="http://www.w3.org/2000/svg" width="180" height="180" viewBox="0 0 180 180"><g transform="translate(-811.229 -204.258)"><g transform="translate(811.229 204.259)"><rect width="180" height="180" transform="translate(0 0)" fill="none"/><g transform="translate(21.054 25.564)"><ellipse cx="62.455" cy="62.155" rx="62.455" ry="62.155" transform="translate(11.41)" fill="#292c30"/><g transform="translate(0 15.875)"><path d="M487.477,60.734,378.652,111.87l10.326,33.263Z" transform="translate(-349.808 -60.734)" fill="#51565e"/><path d="M463.717,60.734,354.892,111.87l-18.121,1.241-10.724-9.929Z" transform="translate(-326.048 -60.734)" fill="#606673"/><path d="M494.636,60.734l-86.825,63.15-10.326,21.249Z" transform="translate(-358.168 -60.486)" fill="#393d42"/><path d="M504.489,60.734l-88.172,63.15,13.752,15.142,16.88,6.156Z" transform="translate(-366.82 -60.734)" fill="#6f7685"/><path d="M406.177,180.147l-16.88-6.156-13.752-15.142L365.219,180.1l-10.326-33.263-18.121,1.241-10.724-9.929,11.121,9.631L355.2,146.71l10.116,32,10.227-19.859,13.8,14.5Z" transform="translate(-326.048 -95.698)" fill="#51565e"/></g></g><g transform="matrix(0.848, -0.53, 0.53, 0.848, 14.574, 28.952)"><path d="M4.823,4.066C2.53,4.066,2.926,0,0,0" transform="translate(0 0)" fill="none" stroke="#41464d" stroke-linecap="round" stroke-linejoin="round" stroke-width="2"/><path d="M4.822,4.066C2.53,4.066,2.925,0,0,0" transform="translate(9.646 0)" fill="none" stroke="#41464d" stroke-linecap="round" stroke-linejoin="round" stroke-width="2"/><path d="M0,4.066C2.293,4.066,1.9,0,4.823,0" transform="translate(4.823 0)" fill="none" stroke="#41464d" stroke-linecap="round" stroke-linejoin="round" stroke-width="2"/><path d="M0,0" transform="translate(19.291 0)" fill="none" stroke="#41464d" stroke-linecap="round" stroke-linejoin="round" stroke-width="2"/><path d="M0,4.066C2.292,4.066,1.9,0,4.823,0" transform="translate(14.468 0)" fill="none" stroke="#41464d" stroke-linecap="round" stroke-linejoin="round" stroke-width="2"/></g><g transform="matrix(0.225, -0.974, 0.974, 0.225, 171.818, 82.131)"><path d="M2.493,2.1C1.308,2.1,1.512,0,0,0" transform="translate(0 0)" fill="none" stroke="#41464d" stroke-linecap="round" stroke-linejoin="round" stroke-width="1"/><path d="M2.492,2.1C1.307,2.1,1.512,0,0,0" transform="translate(4.985 0)" fill="none" stroke="#41464d" stroke-linecap="round" stroke-linejoin="round" stroke-width="1"/><path d="M0,2.1C1.185,2.1.981,0,2.493,0" transform="translate(2.493 0)" fill="none" stroke="#41464d" stroke-linecap="round" stroke-linejoin="round" stroke-width="1"/><path d="M0,0" transform="translate(9.97 0)" fill="none" stroke="#41464d" stroke-linecap="round" stroke-linejoin="round" stroke-width="1"/><path d="M0,2.1C1.185,2.1.981,0,2.492,0" transform="translate(7.477 0)" fill="none" stroke="#41464d" stroke-linecap="round" stroke-linejoin="round" stroke-width="1"/></g><g transform="matrix(0.545, 0.839, -0.839, 0.545, 141.037, 154.318)"><line x1="4.883" y1="4.579" transform="translate(0 0.151)" fill="none" stroke="#41464d" stroke-linecap="round" stroke-linejoin="round" stroke-width="2"/><line y1="4.883" x2="4.58" transform="translate(0.151 0)" fill="none" stroke="#41464d" stroke-linecap="round" stroke-linejoin="round" stroke-width="2"/></g><path d="M284.527,560.2a2.818,2.818,0,1,1-2.818-2.818A2.818,2.818,0,0,1,284.527,560.2Z" transform="translate(-264.317 -415.002)" fill="none" stroke="#41464d" stroke-linecap="round" stroke-linejoin="round" stroke-width="2"/></g></g></svg>